<?xml version="1.0" encoding="UTF-8"?>
<svg id="Layer_1" xmlns="http://www.w3.org/2000/svg" version="1.1" viewBox="0 0 500 500">
  <!-- Generator: Adobe Illustrator 29.0.1, SVG Export Plug-In . SVG Version: 2.1.0 Build 192)  -->
  <defs>
    <style>
      .st0, .st1, .st2, .st3, .st4, .st5, .st6, .st7, .st8, .st9 {
        isolation: isolate;
      }

      .st0, .st7 {
        opacity: .3;
      }

      .st1, .st8 {
        opacity: .2;
      }

      .st10 {
        fill: #935048;
      }

      .st11 {
        fill: #aa7a74;
      }

      .st12 {
        fill: #914f47;
      }

      .st13 {
        fill: #263238;
      }

      .st14 {
        fill: #8a4e47;
      }

      .st15 {
        fill: #c7c7c7;
      }

      .st16, .st4, .st5, .st6, .st7, .st8, .st9 {
        fill: #fff;
      }

      .st17, .st2, .st3 {
        fill: #00e5a6;
      }

      .st18 {
        fill: #f0f0f0;
      }

      .st19, .st4 {
        opacity: .7;
      }

      .st20, .st3 {
        opacity: .4;
      }

      .st21 {
        fill: #8a5f5a;
      }

      .st2, .st5 {
        opacity: .8;
      }

      .st22 {
        fill: #de5753;
      }

      .st23 {
        fill: #936762;
      }

      .st6 {
        opacity: 0;
      }

      .st9 {
        opacity: .6;
      }
    </style>
  </defs>
  <g id="freepik--Floor--inject-96">
    <path class="st15" d="M452,474.7c0,.1-90.4.3-202,.3s-202-.1-202-.3,90.4-.3,202-.3,202,.1,202,.3Z"/>
  </g>
  <g>
    <path class="st17" d="M92.2,179.5c0,3.6-2.9,6.4-6.4,6.4s-6.4-2.9-6.4-6.4,2.9-6.4,6.4-6.4,6.4,2.9,6.4,6.4Z"/>
    <path class="st17" d="M241.4,27.4c0,6.9-5.6,12.5-12.5,12.5s-12.5-5.6-12.5-12.5,5.6-12.5,12.5-12.5,12.5,5.6,12.5,12.5Z"/>
    <path class="st17" d="M468.4,74.7c0,3.6-2.9,6.4-6.4,6.4s-6.4-2.9-6.4-6.4,2.9-6.4,6.4-6.4,6.4,2.9,6.4,6.4Z"/>
    <path class="st17" d="M318.9,353.5c0,3.6-2.9,6.4-6.4,6.4s-6.4-2.9-6.4-6.4,2.9-6.4,6.4-6.4,6.4,2.9,6.4,6.4Z"/>
    <path class="st18" d="M424.4,261.2c0,3.6-2.9,6.4-6.4,6.4s-6.4-2.9-6.4-6.4,2.9-6.4,6.4-6.4,6.4,2.9,6.4,6.4Z"/>
    <path class="st16" d="M432.6,269.3c0,2.9-2.4,5.3-5.3,5.3s-5.3-2.4-5.3-5.3,2.4-5.3,5.3-5.3,5.3,2.4,5.3,5.3Z"/>
    <path class="st18" d="M298.5,104.2c0,3.6-2.9,6.4-6.4,6.4s-6.4-2.9-6.4-6.4,2.9-6.4,6.4-6.4,6.4,2.9,6.4,6.4Z"/>
    <path class="st17" d="M239,331.6c3.2.3,6.4.4,9.6.3,27.1-.4,51.8-12,69.4-30.7,14.6-15.5,24.2-35.8,26.1-58.6,0-.6,0-1.2.1-1.8.8-12.2-.7-24-4.1-35.1h0c-10.5-33.8-39-60.1-75.1-66.8-3.2-.6-6.5-1-9.9-1.3-8.1-.7-16-.3-23.7.9-22.7,3.7-43,15.3-57.7,32.1-13.2,15.1-21.9,34.4-23.6,56-1,11.5.1,22.8,3,33.3,10.4,38.5,44,68.2,86,71.7Z"/>
    <g class="st19">
      <path class="st16" d="M239,331.6c3.2.3,6.4.4,9.6.3,27.1-.4,51.8-12,69.4-30.7,14.6-15.5,24.2-35.8,26.1-58.6,0-.6,0-1.2.1-1.8.8-12.2-.7-24-4.1-35.1h0c-10.5-33.8-39-60.1-75.1-66.8-3.2-.6-6.5-1-9.9-1.3-8.1-.7-16-.3-23.7.9-22.7,3.7-43,15.3-57.7,32.1-13.2,15.1-21.9,34.4-23.6,56-1,11.5.1,22.8,3,33.3,10.4,38.5,44,68.2,86,71.7Z"/>
    </g>
    <path class="st17" d="M174.1,258.4c-.3,1.8-2.6,2.5-4.5,2.7-2.8.3-5.6.7-8.3,1-1.3-3.5-5.4-3.5-8.3-2.1,10.4,38.5,43.9,68.2,86,71.7,3.2.3,6.4.4,9.6.3,0,0,.1-.2.2-.2,1.4-2.5-.7-4.8-1.8-6.9-.3-.5-2.6-6.5-1.8-6.5-2.6,0-5.1-.3-7.6-1-.2,0-.4-.1-.5-.3-.2-.4.3-.8.8-.9,1.1-.3,2.3-.3,3.5-.7,1.1-.3,2.2-1,2.7-2.1.4-1.1.1-2.4.4-3.5.3-1.4,1.5-2.5,2.8-3.1,1.3-.6,2.7-.8,4-1.1-2.9-1.6-.8-4.9-3.1-7.2-.7-.7-1.8-1.6-1.4-2.5.4-.9,2-.9,2.2-1.8.1-.7-.6-1.2-1.2-1.4-.7-.2-1.4,0-2-.4-.8-.5-1.1-1.7-.6-2.5.5-.7,1.4-.9,2.2-1.3.8-.4,1.4-1.4,1-2.1-.1-.2-.3-.3-.4-.4-1.2-.8-2.9-.1-4.1.7-1.2.8-2.5,1.8-3.9,1.8-.3-.6,0-1.4.5-1.7.2,0,.4-.1.6-.3.3-.3,0-.9-.1-1.4-1.1-2-1.4-4.5-.7-6.7,3,0,5.9.1,8.9.2,0-.7.1-1.1.9-1.3-2-2.4-4.2-4.6-5.9-7.2-.2-.3-.4-.6-.8-.8-.4-.1-.8,0-1.2,0-1.3-.2-1.5-1.9-1.4-3.2-.2-.4-.8-.2-1.1.1-.2.4-.3.8-.6,1.1-.4.5-1.2.4-1.8.2-2.1-.8-3.2-3.5-2.3-5.6.1-.2.3-.5.5-.6.5-.3,1.1,0,1.7.2,2.3.4,1.9-2.1,1.4-3.3-.7-1.6-3-2.6-4.6-3.1-1.9-.5-14.4-2.9-12.3-7,.2-.4.6-.6,1-.8,1.2-.5,2.6-.4,3.8-.7,1.3-.4,2.5-1.7,1.9-2.8-.2-.5-.7-.8-.9-1.3-.7-1.3.4-2.9-.1-4.3-.2-.6-.8-1.1-1.1-1.7-.3-.6-.4-1.4.2-1.8.6-.4,1.5.2,2.2-.1.7-.3.7-1.5,0-1.9-.6-.4-1.6-.3-2.2.2-.3.2-.7.5-1.1.6-.7,0-1.3-.6-1.7-1.3-.6-1-1.2-2-1.8-3-.7,0-1.2.6-1.4,1.3-.2.6-.3,1.3-.5,1.9-1.3,3-5.8,2.6-5.2,6.8,1.2-.1,2.4,1.2,2,2.4-.5,1.4-2.7,2.3-2.4,3.7.1.5.5.9.6,1.5.2,1.4-2,2-3,2.3-3.2,1.1-3.4-1-6.2-1.1-1.3,0-2.4.8-3.7.9-1.2.1-2.3-.4-3.5-.3-3.2.2-1.6,4.5-1.4,6.4-1.7-1.1-4,.2-5.4,1.7-2.1,2.4-1.9,2-4.7,2.1-.7,0-1.5.4-1.8,1.1-.5,1.2.6,2.4.6,3.7,0,.6-.2,1.2-.2,1.8.1,1.6,2,2.3,3.2,3.4,1,1,1.5,2.5,1.2,3.9-.8,0-1.7,0-2.5-.2-.5-.9-1-1.9-1.4-2.8-.4-.8-.9-1.7-1.6-2.2-.4-.3-.9-.5-1.2-.9-.6-.8-.1-2,0-3,.3-2.5-.9-6.6-1.5-9.1-.6-2.6-2.4-3.7-3-6.1-.1-.4-.7-.6-1.1-.3-.4.2-.6.7-.7,1.1-.3,1-.2,2.1.3,3-.5-1.2-3.6,2-3.8,2.6-.3,1,.4,2.4.3,3.5,0,2.6-.7,4-3.4,2.1-1-.7-2.3-1.6-3.4-.9.2.7-.2,1.5-.9,1.8-.7.3-1.4.3-2.2.2-.5,0-1-.3-1.3-.6-.2-.2-.3-.5-.5-.6-.7-.5-1.5.4-1.9,1.2"/>
    <path class="st17" d="M291.7,181.9c.5.8,0,1.9-.6,2.7-.6.8-1.3,1.7-1.1,2.7,1.1.1,2.3.2,3.5.3.2,0,.5,0,.6.2.1.2.1.4,0,.6,0,.7-.2,1.5-.3,2.2-.7.6-1.4-1.2-2.3-1-.4,0-.6.5-.8.9-1.9,2.9-5.1.7-6.9-.8-2-1.8-5-1.9-7.7-1.9-1,0-2,0-2.7.7-.7.7-.7,1.7-1.1,2.6-.6,1.6-2.1,2.6-2.9,4-2.9,5,2.3,8.8,6.8,7.5,2.3-.7,1.9-1.1,4.3-.4,1,.3,2.2,0,2.8,1.1.6,1.2-.3,2.7-1.6,2.7-1.3,0-2.6.2-3.8-.4.5,1.6,0,3.4-.2,5.1-1.5-.4-3,1.5-2.4,2.9.8,0,1.8.3,1.7,1.1,0,.2-.1.4-.3.6-.5.8-1.2,1.4-1.7,2.2-.7,1.2-.7,5-2.5,5.4-.3,0-.6,0-1,.2-.7.2-1,1-.9,1.7.2.7.7,1.2,1.4,1.4.4.1.9.1,1.4.3,2.3.8.3,3.1.8,4.2.3.5,4.1,3,4.6,3.1-1.4.9-2.5,2.4-2.6,4.1,0,1.9,1.4,2.8,3.1,3.3,1.9.6,4.2.8,5.5,1.3.7.3,1.6.5,2.2,0,.8-.6.6-2,1.5-2.4.3-.1.6-.1.9-.1,1.8-.2,3.3-2.1,2.9-3.9.4-.6,1.2-.5,1.9-.5.7,0,1.6-.2,1.7-.9.1-.8-.9-1.2-1.7-1.3-.8,0-1.6,0-2.4.2-.6.1-1.2.3-1.8,0-.4-.2-.7-.6-.9-1-.6-.9-1.1-2-1-3.1,0-1.1,1-2.2,2.1-2.1.3,0,.6,0,.9,0,.7-.1,1.1-1,1-1.8,0-.8-.3-1.5,0-2.3.2-.7,1.2-1.3,1.7-.7.4-1,.7-2.4-.2-2.8-.3-.1-.7-.1-1-.2-2.1-.2-4.9-3-2.6-4.6,1.5-1.1,4,1.1,5.3-.9.6-1,.2-2.3.9-3.3.4-.3.8.3.9.8.3,1.5-.3,3.1-1.4,4.1,1.2.7,3,0,3.8,1,.8,1.1-.4,3,.7,3.8.3.2.7.3,1.1.4,1.9.3,5.4,0,5.5,2.6,0,.3,0,.7,0,1,.3.9,1.6,1,2.5.9.5-1-.2-2.1-.6-3.1-.4-1-.4-2.5.7-2.8.8-.2,1.6.5,2.3,0,.3-.2.4-.6.8-.8.8-.4,1.4.8,2.3,1,1.1.4,2-1.1,2-2.3s-.3-2.6.5-3.5c.3-.3.6-.5.9-.8.9-.8,1-2.1,1.1-3.3.2-1.9,7.6,3,8,3.1,3.5.6,5.7-2.9,8.2-4.8,1.3-1,2.8-1.7,4.2-2.4-10.1-32.5-37.3-58-70.5-65.8-1.5-.3-3-.8-4.5-.9.5,2.3,1.9,5.8.3,8-1.9,2.7-6,.3-7.5,3.5,0,.8,1.3.7,1.9,1.2.3.3.4.8.6,1.2s.6.9,1,.7c.5.8-.3,1.7-.9,2.3-.8.7-1.5,1.6-1.8,2.6-.6,2.1.8,4.3,1.7,6.3.7,1.7,1.2,3.5,1.6,5.3,0-.8,1.2-1.2,2-.8.8.4,1.2,1.2,1.8,1.7,1.1,1,2.4.4,3.5,1.3,1.4,1.1,2.3,3,4,3.3,2.1.3,3.6-1.9,4.6-3.8,2.3,1.2,3.7,4.2,6.3,4.4,1,0,2-.3,2.9-.7,1.9-.8,3.8-1.5,5.7-2.3.8-.3,1.7-.6,2.5-.3.9.3,1.4,1.4,1.8,2.3.4,1,.8,2,1.2,3,.2.4.3.9.2,1.3-.1.5-.5.8-.9,1-2.2,1.4-4.9,2-7.4,1.5.3,3.5.9,6.9,2,10.2-2-.5-4.2.1-6-.6"/>
    <path class="st17" d="M269.4,260.9c-.7.9-1.8,1.5-2.9,1.5-.7,0-1.4-.3-2.1-.4-.7,0-1.5,0-1.9.6-.5.8,0,1.7.4,2.5.4.6.8,1.3,1.5,1.5.5.1,1.1,0,1.6,0,1,.2,1.7,1.1,2.4,2,.7.8,1.8,1.5,2.7,1,.6-.3.9-1.1,1.4-1.5,1.4-.9,3.2,1.1,4.5.3,1.5-.9,1-3.4.3-4.8-.6-1.4-2-2.5-3.1-3.6-3.1-3-2.7-2-5,.8Z"/>
    <path class="st17" d="M318,301.2c15.3-15.2,24.3-37.3,26-58.5,0-.6,0-1.2.1-1.8-3-3-8.8-5-10.4.5-.6,0-.7-.4-1.2-.7-.7-.5-1.7.2-2.2,1-1.3,2.6-1.5,6-5.2,5.3-4.4-.9-1.4-2.7-2.8-5.1-.2-.3-.6-.6-.9-.9-1-1.1-.9-2.8-.7-4.2.8.4,2,0,2.3-1,.1-.3.1-.7.3-1,.5-.6,1.5,0,1.7.7.2.7,0,1.5.2,2.3.2.8,1,1.5,1.6,1.1.3-.2.4-.5.5-.8.4-1.3.1-2.8-.8-3.8.7-.2,1.3-.9,1.2-1.7,0-.7-.6-1.4-1.3-1.6-1.1-.2-2.6.4-3-.6.2.9-.2,1.8-.9,2.3-2.8,2-9.2.2-8.5,6.2.1,1,.4,1.9.4,2.9,0,1-.5,2-1.5,2.2,1.7,1.4,1.1,4.5,2.9,5.8.9.6,2.1.4,2.9-.3.1-.1.2-.3.4-.3.3-.1.6.2,1,.3.6.1,1.1-.5,1.7-.5.9,0,1.3,1,1.5,1.8.2.8.4,1.9,1.2,2.1.3,0,.6,0,.9.1.6.2.9.8.9,1.4,0,.6-.2,1.1-.4,1.7-.4.4-1,.1-1.3-.2-.3-.4-.6-.9-.9-1.2-.2-.2-5.3.2-5.1-.2-.8,1.7-1.1,5.6-3.8,4.6-.9-.3-1.9-1-2.8-.7.5-1.2.9-2.5,1.3-3.7-.4-.3-1,.1-1.1.6-.2.5-.2,1.1-.6,1.4-.3.2-.7.2-1,.2-1.2,0-2.3,0-3.5,0-1.3,0-2.7,0-3.5,1-.9,1.1-.4,2.9.6,4,.2.3.5.5.5.9,0,.3-.3.5-.5.8-1.2,1.1-2,2.8-1.7,4.5.3,1.6,1.8,3.1,3.4,2.9.6,0,1.4-.3,1.8.3.2.3.2.8.5.9.4.2.8-.3,1.1-.7.6-.6,1.6-.8,2.3-.4.4.2,1.5,3.8,1.2,4.4-.7,1.2-4,.7-5.3.8-.5,0-1.1,0-1.4.5-.5.6,0,1.5.5,2.1.6.5,1.3.9,1.6,1.7.2.4.1.9.1,1.4,0,.9-.1,2-.8,2.6-.3.3-.8.4-1.1.7-.8.6-.8,1.8-.5,2.8.3,1,.8,1.8,1,2.8.4,2.1-.7,4.3,0,6.2.4.9,1.6,1.7,2.4,1,.7-.6.7-1.9,1.5-2,.8,0,1.9,2,2.6,2.4.6.3,1.7-.2,2.7.5.8.6,1,1.9,1.9,2.6Z"/>
    <path class="st17" d="M188,171.5c.9-1.1,1.4-2.4,3-2.6,2.2-.4,3,.9,2.1,2.9,0,.2-.2.4-.1.6.2.6,1.1.3,1.6,0,1.3-.8,2.9-.8,4.2-.2.3.1.9-5.9.6-6.6-1.1-2.4-6.2-1.3-5.1-3.9,1.9,0,3.9.2,5.8.3.1-.9.2-1.8.3-2.8,0,.7,3.5.5,3.9.3,1.6-.8,1.1-3.7,4-3.2,3.6.6,3.8,7.6-.3,6.4-1,2-1.3,4.5-1.4,6.8-.7,0-1.5,0-2.2,0-.4.5-.5,1.2-.3,1.8,1.8,1.2,4.3,1.3,6.1,0,1.1.9,2.8,0,4-.8,1.7,2.7,6.4,2.3,7.7-.6,1.2-2.9-1.8-6.6-4.9-5.9,0-1.5-.6-2.9-1.5-4.1,3.8.1,7.6-2.5,8.8-6.1.6-1.8.8-4,2.3-5.2.7-.5,1.5-.7,2.3-1.2,1.6-1.1,2.1-3.2,2.3-5.1.2-1.3.3-2.6.4-3.8-22.7,3.7-43,15.3-57.7,32.1,0,.7-.1,1.4.1,2,.5,1.1,1.8,1.6,3.1,1.9,4.7,1.2,7.6,1,10.9-2.7.1-.1.2-.2.3-.3Z"/>
    <g class="st20">
      <path class="st16" d="M174.1,258.4c-.3,1.8-2.6,2.5-4.5,2.7-2.8.3-5.6.7-8.3,1-1.3-3.5-5.4-3.5-8.3-2.1,10.4,38.5,43.9,68.2,86,71.7,3.2.3,6.4.4,9.6.3,0,0,.1-.2.2-.2,1.4-2.5-.7-4.8-1.8-6.9-.3-.5-2.6-6.5-1.8-6.5-2.6,0-5.1-.3-7.6-1-.2,0-.4-.1-.5-.3-.2-.4.3-.8.8-.9,1.1-.3,2.3-.3,3.5-.7,1.1-.3,2.2-1,2.7-2.1.4-1.1.1-2.4.4-3.5.3-1.4,1.5-2.5,2.8-3.1,1.3-.6,2.7-.8,4-1.1-2.9-1.6-.8-4.9-3.1-7.2-.7-.7-1.8-1.6-1.4-2.5.4-.9,2-.9,2.2-1.8.1-.7-.6-1.2-1.2-1.4-.7-.2-1.4,0-2-.4-.8-.5-1.1-1.7-.6-2.5.5-.7,1.4-.9,2.2-1.3.8-.4,1.4-1.4,1-2.1-.1-.2-.3-.3-.4-.4-1.2-.8-2.9-.1-4.1.7-1.2.8-2.5,1.8-3.9,1.8-.3-.6,0-1.4.5-1.7.2,0,.4-.1.6-.3.3-.3,0-.9-.1-1.4-1.1-2-1.4-4.5-.7-6.7,3,0,5.9.1,8.9.2,0-.7.1-1.1.9-1.3-2-2.4-4.2-4.6-5.9-7.2-.2-.3-.4-.6-.8-.8-.4-.1-.8,0-1.2,0-1.3-.2-1.5-1.9-1.4-3.2-.2-.4-.8-.2-1.1.1-.2.4-.3.8-.6,1.1-.4.5-1.2.4-1.8.2-2.1-.8-3.2-3.5-2.3-5.6.1-.2.3-.5.5-.6.5-.3,1.1,0,1.7.2,2.3.4,1.9-2.1,1.4-3.3-.7-1.6-3-2.6-4.6-3.1-1.9-.5-14.4-2.9-12.3-7,.2-.4.6-.6,1-.8,1.2-.5,2.6-.4,3.8-.7,1.3-.4,2.5-1.7,1.9-2.8-.2-.5-.7-.8-.9-1.3-.7-1.3.4-2.9-.1-4.3-.2-.6-.8-1.1-1.1-1.7-.3-.6-.4-1.4.2-1.8.6-.4,1.5.2,2.2-.1.7-.3.7-1.5,0-1.9-.6-.4-1.6-.3-2.2.2-.3.2-.7.5-1.1.6-.7,0-1.3-.6-1.7-1.3-.6-1-1.2-2-1.8-3-.7,0-1.2.6-1.4,1.3-.2.6-.3,1.3-.5,1.9-1.3,3-5.8,2.6-5.2,6.8,1.2-.1,2.4,1.2,2,2.4-.5,1.4-2.7,2.3-2.4,3.7.1.5.5.9.6,1.5.2,1.4-2,2-3,2.3-3.2,1.1-3.4-1-6.2-1.1-1.3,0-2.4.8-3.7.9-1.2.1-2.3-.4-3.5-.3-3.2.2-1.6,4.5-1.4,6.4-1.7-1.1-4,.2-5.4,1.7-2.1,2.4-1.9,2-4.7,2.1-.7,0-1.5.4-1.8,1.1-.5,1.2.6,2.4.6,3.7,0,.6-.2,1.2-.2,1.8.1,1.6,2,2.3,3.2,3.4,1,1,1.5,2.5,1.2,3.9-.8,0-1.7,0-2.5-.2-.5-.9-1-1.9-1.4-2.8-.4-.8-.9-1.7-1.6-2.2-.4-.3-.9-.5-1.2-.9-.6-.8-.1-2,0-3,.3-2.5-.9-6.6-1.5-9.1-.6-2.6-2.4-3.7-3-6.1-.1-.4-.7-.6-1.1-.3-.4.2-.6.7-.7,1.1-.3,1-.2,2.1.3,3-.5-1.2-3.6,2-3.8,2.6-.3,1,.4,2.4.3,3.5,0,2.6-.7,4-3.4,2.1-1-.7-2.3-1.6-3.4-.9.2.7-.2,1.5-.9,1.8-.7.3-1.4.3-2.2.2-.5,0-1-.3-1.3-.6-.2-.2-.3-.5-.5-.6-.7-.5-1.5.4-1.9,1.2"/>
      <path class="st16" d="M291.7,181.9c.5.8,0,1.9-.6,2.7-.6.8-1.3,1.7-1.1,2.7,1.1.1,2.3.2,3.5.3.2,0,.5,0,.6.2.1.2.1.4,0,.6,0,.7-.2,1.5-.3,2.2-.7.6-1.4-1.2-2.3-1-.4,0-.6.5-.8.9-1.9,2.9-5.1.7-6.9-.8-2-1.8-5-1.9-7.7-1.9-1,0-2,0-2.7.7-.7.7-.7,1.7-1.1,2.6-.6,1.6-2.1,2.6-2.9,4-2.9,5,2.3,8.8,6.8,7.5,2.3-.7,1.9-1.1,4.3-.4,1,.3,2.2,0,2.8,1.1.6,1.2-.3,2.7-1.6,2.7-1.3,0-2.6.2-3.8-.4.5,1.6,0,3.4-.2,5.1-1.5-.4-3,1.5-2.4,2.9.8,0,1.8.3,1.7,1.1,0,.2-.1.4-.3.6-.5.8-1.2,1.4-1.7,2.2-.7,1.2-.7,5-2.5,5.4-.3,0-.6,0-1,.2-.7.2-1,1-.9,1.7.2.7.7,1.2,1.4,1.4.4.1.9.1,1.4.3,2.3.8.3,3.1.8,4.2.3.5,4.1,3,4.6,3.1-1.4.9-2.5,2.4-2.6,4.1,0,1.9,1.4,2.8,3.1,3.3,1.9.6,4.2.8,5.5,1.3.7.3,1.6.5,2.2,0,.8-.6.6-2,1.5-2.4.3-.1.6-.1.9-.1,1.8-.2,3.3-2.1,2.9-3.9.4-.6,1.2-.5,1.9-.5.7,0,1.6-.2,1.7-.9.1-.8-.9-1.2-1.7-1.3-.8,0-1.6,0-2.4.2-.6.1-1.2.3-1.8,0-.4-.2-.7-.6-.9-1-.6-.9-1.1-2-1-3.1,0-1.1,1-2.2,2.1-2.1.3,0,.6,0,.9,0,.7-.1,1.1-1,1-1.8,0-.8-.3-1.5,0-2.3.2-.7,1.2-1.3,1.7-.7.4-1,.7-2.4-.2-2.8-.3-.1-.7-.1-1-.2-2.1-.2-4.9-3-2.6-4.6,1.5-1.1,4,1.1,5.3-.9.6-1,.2-2.3.9-3.3.4-.3.8.3.9.8.3,1.5-.3,3.1-1.4,4.1,1.2.7,3,0,3.8,1,.8,1.1-.4,3,.7,3.8.3.2.7.3,1.1.4,1.9.3,5.4,0,5.5,2.6,0,.3,0,.7,0,1,.3.9,1.6,1,2.5.9.5-1-.2-2.1-.6-3.1-.4-1-.4-2.5.7-2.8.8-.2,1.6.5,2.3,0,.3-.2.4-.6.8-.8.8-.4,1.4.8,2.3,1,1.1.4,2-1.1,2-2.3s-.3-2.6.5-3.5c.3-.3.6-.5.9-.8.9-.8,1-2.1,1.1-3.3.2-1.9,7.6,3,8,3.1,3.5.6,5.7-2.9,8.2-4.8,1.3-1,2.8-1.7,4.2-2.4-10.1-32.5-37.3-58-70.5-65.8-1.5-.3-3-.8-4.5-.9.5,2.3,1.9,5.8.3,8-1.9,2.7-6,.3-7.5,3.5,0,.8,1.3.7,1.9,1.2.3.3.4.8.6,1.2s.6.9,1,.7c.5.8-.3,1.7-.9,2.3-.8.7-1.5,1.6-1.8,2.6-.6,2.1.8,4.3,1.7,6.3.7,1.7,1.2,3.5,1.6,5.3,0-.8,1.2-1.2,2-.8.8.4,1.2,1.2,1.8,1.7,1.1,1,2.4.4,3.5,1.3,1.4,1.1,2.3,3,4,3.3,2.1.3,3.6-1.9,4.6-3.8,2.3,1.2,3.7,4.2,6.3,4.4,1,0,2-.3,2.9-.7,1.9-.8,3.8-1.5,5.7-2.3.8-.3,1.7-.6,2.5-.3.9.3,1.4,1.4,1.8,2.3.4,1,.8,2,1.2,3,.2.4.3.9.2,1.3-.1.5-.5.8-.9,1-2.2,1.4-4.9,2-7.4,1.5.3,3.5.9,6.9,2,10.2-2-.5-4.2.1-6-.6"/>
      <path class="st16" d="M269.4,260.9c-.7.9-1.8,1.5-2.9,1.5-.7,0-1.4-.3-2.1-.4-.7,0-1.5,0-1.9.6-.5.8,0,1.7.4,2.5.4.6.8,1.3,1.5,1.5.5.1,1.1,0,1.6,0,1,.2,1.7,1.1,2.4,2,.7.8,1.8,1.5,2.7,1,.6-.3.9-1.1,1.4-1.5,1.4-.9,3.2,1.1,4.5.3,1.5-.9,1-3.4.3-4.8-.6-1.4-2-2.5-3.1-3.6-3.1-3-2.7-2-5,.8Z"/>
      <path class="st16" d="M318,301.2c15.3-15.2,24.3-37.3,26-58.5,0-.6,0-1.2.1-1.8-3-3-8.8-5-10.4.5-.6,0-.7-.4-1.2-.7-.7-.5-1.7.2-2.2,1-1.3,2.6-1.5,6-5.2,5.3-4.4-.9-1.4-2.7-2.8-5.1-.2-.3-.6-.6-.9-.9-1-1.1-.9-2.8-.7-4.2.8.4,2,0,2.3-1,.1-.3.1-.7.3-1,.5-.6,1.5,0,1.7.7.2.7,0,1.5.2,2.3.2.8,1,1.5,1.6,1.1.3-.2.4-.5.5-.8.4-1.3.1-2.8-.8-3.8.7-.2,1.3-.9,1.2-1.7,0-.7-.6-1.4-1.3-1.6-1.1-.2-2.6.4-3-.6.2.9-.2,1.8-.9,2.3-2.8,2-9.2.2-8.5,6.2.1,1,.4,1.9.4,2.9,0,1-.5,2-1.5,2.2,1.7,1.4,1.1,4.5,2.9,5.8.9.6,2.1.4,2.9-.3.1-.1.2-.3.4-.3.3-.1.6.2,1,.3.6.1,1.1-.5,1.7-.5.9,0,1.3,1,1.5,1.8.2.8.4,1.9,1.2,2.1.3,0,.6,0,.9.1.6.2.9.8.9,1.4,0,.6-.2,1.1-.4,1.7-.4.4-1,.1-1.3-.2-.3-.4-.6-.9-.9-1.2-.2-.2-5.3.2-5.1-.2-.8,1.7-1.1,5.6-3.8,4.6-.9-.3-1.9-1-2.8-.7.5-1.2.9-2.5,1.3-3.7-.4-.3-1,.1-1.1.6-.2.5-.2,1.1-.6,1.4-.3.2-.7.2-1,.2-1.2,0-2.3,0-3.5,0-1.3,0-2.7,0-3.5,1-.9,1.1-.4,2.9.6,4,.2.3.5.5.5.9,0,.3-.3.5-.5.8-1.2,1.1-2,2.8-1.7,4.5.3,1.6,1.8,3.1,3.4,2.9.6,0,1.4-.3,1.8.3.2.3.2.8.5.9.4.2.8-.3,1.1-.7.6-.6,1.6-.8,2.3-.4.4.2,1.5,3.8,1.2,4.4-.7,1.2-4,.7-5.3.8-.5,0-1.1,0-1.4.5-.5.6,0,1.5.5,2.1.6.5,1.3.9,1.6,1.7.2.4.1.9.1,1.4,0,.9-.1,2-.8,2.6-.3.3-.8.4-1.1.7-.8.6-.8,1.8-.5,2.8.3,1,.8,1.8,1,2.8.4,2.1-.7,4.3,0,6.2.4.9,1.6,1.7,2.4,1,.7-.6.7-1.9,1.5-2,.8,0,1.9,2,2.6,2.4.6.3,1.7-.2,2.7.5.8.6,1,1.9,1.9,2.6Z"/>
      <path class="st16" d="M188,171.5c.9-1.1,1.4-2.4,3-2.6,2.2-.4,3,.9,2.1,2.9,0,.2-.2.4-.1.6.2.6,1.1.3,1.6,0,1.3-.8,2.9-.8,4.2-.2.3.1.9-5.9.6-6.6-1.1-2.4-6.2-1.3-5.1-3.9,1.9,0,3.9.2,5.8.3.1-.9.2-1.8.3-2.8,0,.7,3.5.5,3.9.3,1.6-.8,1.1-3.7,4-3.2,3.6.6,3.8,7.6-.3,6.4-1,2-1.3,4.5-1.4,6.8-.7,0-1.5,0-2.2,0-.4.5-.5,1.2-.3,1.8,1.8,1.2,4.3,1.3,6.1,0,1.1.9,2.8,0,4-.8,1.7,2.7,6.4,2.3,7.7-.6,1.2-2.9-1.8-6.6-4.9-5.9,0-1.5-.6-2.9-1.5-4.1,3.8.1,7.6-2.5,8.8-6.1.6-1.8.8-4,2.3-5.2.7-.5,1.5-.7,2.3-1.2,1.6-1.1,2.1-3.2,2.3-5.1.2-1.3.3-2.6.4-3.8-22.7,3.7-43,15.3-57.7,32.1,0,.7-.1,1.4.1,2,.5,1.1,1.8,1.6,3.1,1.9,4.7,1.2,7.6,1,10.9-2.7.1-.1.2-.2.3-.3Z"/>
    </g>
    <path class="st15" d="M136.3,396.2c7,0,12.7-5.7,12.7-12.7s-5.7-12.7-12.7-12.7-12.7,5.7-12.7,12.7,5.7,12.7,12.7,12.7Z"/>
    <path class="st2" d="M421.3,144.9l-91.2,39.5.5,1.1,91.2-39.5-.5-1.1Z"/>
    <path class="st2" d="M330.5,284.4l-.8.9,78.9,75.3.8-.9-78.9-75.3Z"/>
    <path class="st2" d="M167.7,83.7l-1,.6,38.7,62.5,1-.6-38.7-62.5Z"/>
    <path class="st2" d="M163.9,283.8l-100.4,21,.2,1.2,100.4-21-.2-1.2Z"/>
    <path class="st17" d="M470.2,141.8c0,9-3,17.3-8,23.9-1.8,2.4-3.8,4.5-6.1,6.4-2,1.7-4.2,3.3-6.6,4.6-5.7,3.2-12.3,5-19.3,5s-11.5-1.3-16.5-3.6c-.5-.2-.9-.4-1.4-.7h0c-2.8-1.4-5.4-3.1-7.8-5.2-3.6-3-6.6-6.6-8.9-10.7-3.4-5.8-5.3-12.6-5.3-19.8,0-22,17.9-39.9,39.9-39.9s39.9,17.9,39.9,39.9Z"/>
    <path class="st4" d="M430.3,180.6c21.4,0,38.7-17.3,38.7-38.7,0-21.4-17.4-38.7-38.8-38.7s-38.7,17.3-38.7,38.7c0,21.4,17.4,38.7,38.8,38.7Z"/>
    <path class="st11" d="M404.6,159.9l3.7-15.5s2.4-1.9,2.5-3.3c.1-1.4-1.5-9.5-2.5-10-1-.5-7.1,1.6-7.4,3.4-.3,1.7,2.1,8.6,2.6,9.1l-6.1,18.1,7.2-1.8Z"/>
    <path class="st17" d="M407.6,151l-2.3,20.4c-3.5-2.9-6.4-6.4-8.7-10.4,1.4-4.9,2.8-9.3,3.4-11.3.2-.7.3-1.1.3-1.1l1.3.2,5.3.7h.7c0,0-.1,1.5-.1,1.5Z"/>
    <path class="st17" d="M417.8,164.1l-3.5,12.9c-.5-.2-.9-.4-1.3-.6h0c-2.7-1.4-5.3-3.1-7.6-5,.3-.6,7.4-16.7,10.1-16.5l2.4,9.2Z"/>
    <path class="st0" d="M407.6,151l-2.3,20.4c-3.5-2.9-6.4-6.4-8.7-10.4,1.4-4.9,2.8-9.3,3.4-11.3.2-.7.3-1.1.3-1.1l1.3.2,5.3.7h.7c0,0-.1,1.5-.1,1.5Z"/>
    <path class="st0" d="M417.8,164.1l-3.5,12.9c-.5-.2-.9-.4-1.3-.6h0c-2.7-1.4-5.3-3.1-7.6-5,.3-.6,7.4-16.7,10.1-16.5l2.4,9.2Z"/>
    <path class="st17" d="M409.3,148.3l-1.2,2.8-8.5-1.4.2-1.6,9.5.2Z"/>
    <path class="st13" d="M453.9,128.5c-1,3.8,4.4,14.3,2.2,33.3-2.2,19.1-23.1,17.9-32.5,11.5-9.4-6.4-7.8-40.8-4.5-47.6,3.2-6.8,34.8,2.8,34.8,2.8Z"/>
    <path class="st17" d="M459.4,159.3c-.2.6-.4,1.1-.6,1.7-.2.5-.4,1.1-.5,1.6-.3,1.1-.7,2.1-1,3.1-.7,2-1.3,3.9-1.8,5.7-2,1.7-4.1,3.2-6.4,4.4-5.5,3.1-11.9,4.8-18.7,4.8s-11.1-1.2-16-3.5c-.5-.2-.9-.4-1.3-.6,0-.4,0-.8,0-1.1s0-.7,0-1.1c0-1.1,0-2.1,0-3.1,0-.6,0-1.3,0-1.9,0-.3,0-.6,0-.9,0-1.1.1-2,.2-2.9,0-.3,0-.6,0-.9,0-.9.1-1.6.2-2.3.4-4.4,1-6.2,1.4-6.9,0-.1.1-.2.2-.3.1-.1.2-.1.2-.1,0,0,.6,0,1.6-.1,2.6-.2,7.9-.6,12.8-.6,0,0,.2,0,.3,0,.6,0,1.3,0,1.9,0,2.5.1,5,.3,7.5.7.9.1,1.8.3,2.8.4,1,.1,2,.3,3,.5.1,0,.3,0,.4,0,3.7.6,7.3,1.4,10.9,2.5,1,.3,2,.6,3,.9h0Z"/>
    <path class="st0" d="M459.4,159.3s0,0,0,0c-.2.5-.4,1.1-.5,1.6-.2.5-.4,1.1-.5,1.6-.3,1.1-.7,2.1-1,3.1-.7,2-1.3,3.9-1.8,5.7-2,1.7-4.1,3.2-6.4,4.4-5.5,3.1-11.9,4.8-18.7,4.8s-11.1-1.2-16-3.5c-.5-.2-.9-.4-1.3-.6h0c0-.4,0-.8,0-1.1,0-.4,0-.7,0-1.1,0-1.1,0-2.1,0-3.1,0-.6,0-1.3,0-1.9,0-.3,0-.6,0-.9,0-1.1.1-2,.2-2.9,0-.3,0-.6,0-.9,0-.9.1-1.6.2-2.3.4-4.4,1-6.2,1.4-6.9,0-.1.1-.2.2-.3.1-.1.2-.1.2-.1,0,0,.6,0,1.6-.1,2.6-.2,7.9-.6,12.8-.6,0,0,.2,0,.3,0,.6,0,1.3,0,1.9,0,2.5.1,5,.3,7.5.7.9.1,1.8.3,2.8.4,1,.1,2,.3,3,.5.1,0,.3,0,.4,0,3.7.6,7.3,1.4,10.9,2.5,1,.3,2,.6,2.9.9Z"/>
    <path class="st16" d="M437,153.2c8.5.7,9.6,3.3,8.7,4.6-.9,1.4-12.5,12.7-16,20.3,0,0-12.6-26.4,7.3-24.9Z"/>
    <path class="st11" d="M432.6,161.8c8.5-1.1,11-4.7,11-4.7-5.4-5.1-.9-13.8-.9-13.8l-10.2,1.9c.3,1.7.4,3.1.4,4.3,0,6.2-2.7,6.2-2.7,6.2-1.8,3.3,2.4,6.1,2.4,6.1Z"/>
    <path class="st1" d="M432.5,145.2c.3,1.7.4,3.1.4,4.3,6.9,0,9.8-6.2,9.8-6.2l-10.2,1.9Z"/>
    <path class="st11" d="M438.1,116.7c-8.9-.5-12,4.1-13.1,13.2-1.4,11.4.6,19.6,11.9,17.8,15.2-2.5,16-30.2,1.3-31Z"/>
    <path class="st14" d="M430.8,129.7s-1.4,2.3-2.8,3.5c0,0,.7,1.2,2.3,1.1l.5-4.7Z"/>
    <path class="st13" d="M436.2,129.3c0,.7.3,1.3.8,1.4.5,0,.9-.5,1-1.2,0-.7-.3-1.3-.8-1.4-.5,0-.9.5-1,1.2Z"/>
    <path class="st13" d="M437.4,128.1l-1.5-.7s.7,1.4,1.5.7Z"/>
    <path class="st13" d="M427.2,128.4c0,.7.3,1.3.8,1.4.5,0,.9-.5,1-1.2,0-.7-.3-1.3-.8-1.4-.5,0-.9.5-1,1.2Z"/>
    <path class="st13" d="M428.4,127.2l-1.5-.7s.7,1.4,1.5.7Z"/>
    <path class="st13" d="M440.4,125.1c-.1,0-.3,0-.3-.2-1.1-1.5-3.4-1.4-3.4-1.4-.2,0-.4-.2-.4-.4,0-.2.2-.4.4-.4.1,0,2.8-.2,4.1,1.7.1.2,0,.4,0,.6,0,0-.2,0-.2,0Z"/>
    <path class="st13" d="M426.7,123.4c-.1,0-.3,0-.4-.2-.1-.2,0-.4.1-.6,2.2-1.3,3.9-.6,3.9-.6.2,0,.3.3.2.5,0,.2-.3.3-.5.2,0,0-1.4-.6-3.2.5,0,0-.1,0-.2,0Z"/>
    <path class="st13" d="M431.4,137.9c.5,1.1.9,3.1.9,3.1.2,0,.4,0,.6,0,2.6-.1,3.8-1,4.3-2,.3-.5.3-1.1.3-1.5,0-.5-.1-.9-.1-.9-1.3.9-3.7,1.2-5,1.3-.5,0-.9,0-.9,0Z"/>
    <path class="st16" d="M432.2,137.8l.3.9c2.4-.1,4.1-.5,4.9-1.3,0-.5-.1-.9-.1-.9-1.3.9-3.7,1.2-5,1.3Z"/>
    <path class="st14" d="M432.8,141c2.6-.1,3.8-1,4.3-2-.9,0-1.9.3-2.8.7-.7.3-1.1.8-1.4,1.3Z"/>
    <path class="st13" d="M447,132.1s-3.7-7.5-2.8-13.1c0,0-17.2-8.1-19,9.6,0,0-.9-15.9,14.4-15.4,15.2.5,14,22.7,5.7,28.9,0,0,4-5.4,1.7-10.1Z"/>
    <path class="st11" d="M445.4,133.9c.1-1.4,1.7-3.8,4.4-3.3,2.7.5,3.7,6.2-3.2,7.1-1,.1-1.5-.8-1.2-3.8Z"/>
    <path class="st13" d="M441.8,118.2s-1.4,10.9,5.2,20.8c5,7.5-.7,14.1-.7,14.1,0,0,8.8-5.6,9.1-14.1,0,0,7.3-20.3-7.9-25.8,0,0,0-4.6-9.9-3.7-9.9.9-17.9,9.3-19.4,20.1-1.5,10.8,4.1,22.8,4.1,22.8,0,0-6-38.3,19.5-34.4Z"/>
    <path class="st13" d="M442.4,118.3c-.7,2.5-.8,5.2-.7,7.9.1,2.7.6,5.3,1.3,7.9.7,2.6,1.7,5.1,3,7.5,1.3,2.3,2.9,4.6,5,6.3-2.2-1.6-3.9-3.8-5.3-6.1-1.4-2.3-2.5-4.9-3.3-7.5-.8-2.6-1.3-5.3-1.6-8-.2-2.7-.2-5.5.5-8.3l1.1.4Z"/>
    <path class="st17" d="M461.3,165c-1.7,2.3-3.7,4.4-5.9,6.2-2,1.7-4.1,3.2-6.4,4.4.1-.5.3-1,.5-1.5,1.5-4.3,4.2-8.2,6.4-10.9,1.8-2.3,3.3-3.7,3.5-3.9,0,0,0,0,0,0,.9.7,1.5,2.8,1.9,5.7Z"/>
    <path class="st0" d="M461.3,165c-1.7,2.3-3.7,4.4-5.9,6.2-2,1.7-4.1,3.2-6.4,4.4.1-.5.3-1,.5-1.5,1.5-4.3,4.2-8.2,6.4-10.9,1.8-2.3,3.3-3.7,3.5-3.9,0,0,0,0,0,0,.9.7,1.5,2.8,1.9,5.7Z"/>
    <path class="st17" d="M165.7,118.7c20.2,0,36.5-16.4,36.5-36.5s-16.4-36.5-36.5-36.5-36.5,16.4-36.5,36.5,16.4,36.5,36.5,36.5Z"/>
    <path class="st4" d="M201,82.2c0,8.1-2.7,15.6-7.4,21.5-1.3,1.6-2.7,3.2-4.2,4.6-1.4,1.3-2.9,2.5-4.5,3.5,0,0-.1.1-.2.1-1.3.8-2.6,1.6-3.9,2.2-4.6,2.2-9.7,3.4-15.1,3.4-10.8,0-20.4-4.8-26.9-12.4h0c-5.3-6.2-8.4-14.2-8.4-22.9,0-19.5,15.9-35.3,35.4-35.3s35.3,15.8,35.3,35.3Z"/>
    <path class="st11" d="M173.9,82.2c.8-1.7,1.3-1,3.6.8,2.3,1.7,2.6,3.3,2.6,5.1s-.4,5.5-.4,5.5l5.8,6.5-2.6,4-6.8-7.7s-3.4-2.5-3.9-5.4c-.6-2.8,1.7-8.9,1.7-8.9Z"/>
    <path class="st13" d="M173.2,80.3l4.8,8.6c.2.4.2.9-.1,1.2l-3.7,4.3c-.5.5-1.3.5-1.7-.1l-4.3-7.1,5-6.9Z"/>
    <path class="st3" d="M172.9,81.2l4.2,7.9-4,4.7-4.3-7,4.1-5.7Z"/>
    <path class="st17" d="M185,111.8c0,.2,0,.3,0,.5,0-.1-.2-.3-.3-.4-1.3.8-2.6,1.6-3.9,2.2.3-2.4.7-4.6,1-6.5.3-1.7.5-3.1.7-4,.2-1,.3-1.5.3-1.6h0c.4,0,.8.2,1.3.4,1.8.9,3.6,3,5.4,5.9-1.4,1.3-2.9,2.5-4.5,3.5Z"/>
    <path class="st17" d="M185,112.3c0-.1-.2-.3-.3-.4-1.3.8-2.6,1.6-3.9,2.2-4.6,2.2-9.7,3.4-15.1,3.4-10.8,0-20.4-4.8-26.9-12.4.6-.1,1.2-.3,1.9-.4,0,0,.1,0,.2,0,.1,0,.2,0,.4,0,1.6-.3,3.3-.6,4.9-.8,0,0,0,0,0,0,.7-.1,1.4-.2,2.2-.3,1-.1,1.9-.2,2.9-.3,0,0,.2,0,.2,0,2.2-.3,4.4-.5,6.5-.6.7,0,1.4,0,2.1-.1h0c.9,0,1.8-.1,2.7-.2s1.7,0,2.6-.1c.3,0,.7,0,1,0,1,0,2,0,3,0,3.1,0,5.9,0,8.1,0,.5,0,1,0,1.5,0,.8,0,1.5,0,2.1,0,1.2,0,1.8,0,1.8,0,.1.5.3,1.1.4,1.6h0c.6,2.5,1.2,5.2,1.7,8.1,0,.2,0,.3,0,.5Z"/>
    <path class="st1" d="M185,112.3c0-.1-.2-.3-.3-.4-1.3.8-2.6,1.6-3.9,2.2-4.6,2.2-9.7,3.4-15.1,3.4-10.8,0-20.4-4.8-26.9-12.4-.3,0-.6.1-.9.2.3,0,.6-.1.9-.2.6-.1,1.2-.3,1.9-.4,0,0,.1,0,.2,0,.1,0,.2,0,.4,0,1.6-.3,3.3-.6,4.9-.8,0,0,0,0,0,0,.7-.1,1.4-.2,2.2-.3,1-.1,1.9-.2,2.9-.3,0,0,.2,0,.2,0,2.2-.3,4.4-.5,6.5-.6.7,0,1.4,0,2.1-.1.9,0,1.8-.1,2.7-.2.9,0,1.7,0,2.6-.1.3,0,.7,0,1,0,1,0,2,0,3,0,3.2,0,5.9,0,8.1,0,.5,0,1,0,1.5,0,.8,0,1.5,0,2.1,0,1.2,0,1.8,0,1.8,0h0c.1.5.3,1.1.4,1.7h0c.6,2.5,1.2,5.2,1.7,8.1,0,.2,0,.3,0,.5Z"/>
    <path class="st11" d="M151.2,103.1c3.9,3.5,13.4,2.2,13.4,2.2,0,0,5.9-1.6,4.7-3.5-3.5-.6-5.2-2.2-5.9-4.3-.4-1.2-.5-2.6-.4-4,0-.7.2-1.5.3-2.2l-11.8-8.7c1.6,5.7,3.4,16.3-.4,20.5Z"/>
    <path class="st1" d="M154.3,88.1c.5,7.1,6.3,9,9.1,9.4-.4-1.2-.5-2.6-.4-4l-8.8-5.4Z"/>
    <path class="st13" d="M174.6,65.8s1.7,11-4.2,15.2c-5.8,4.2-5.8-16.2-5.8-16.2l10,1Z"/>
    <path class="st11" d="M153.5,89.7c2.8,4.1,7.4,5.1,11.5,3.9,2.6-.8,4.9-2.6,6.3-5.2.2-.3.4-.7.5-1.1,2.9-6.7,3.8-18.5-3.3-22.9-5-3.2-11.7-1.7-14.9,3.4-.9,1.4-1.5,3.1-1.6,4.8-.9,7.9-1.8,12.4,1.5,17.1Z"/>
    <path class="st13" d="M163.4,76.9c-.2.6.1,1.2.6,1.3s.8-.4.9-1c.1-.6-.1-1.2-.6-1.3-.4,0-.8.4-.9,1Z"/>
    <path class="st13" d="M170.6,78.1c-.2.6.1,1.2.5,1.3.4,0,.8-.4.9-1,.1-.6-.1-1.2-.6-1.3-.4,0-.8.4-.9,1Z"/>
    <path class="st10" d="M168.2,78c.4,2.1,1.1,4.1,2.1,5.9-1,.5-2.1.5-3.1,0l1-6Z"/>
    <path class="st13" d="M161.6,74.2c.1,0,.3,0,.4,0,.7-.7,1.7-1,2.6-.8.2,0,.4,0,.5-.3,0-.2,0-.4-.3-.5-1.2-.2-2.4.2-3.3,1-.2.1-.2.4,0,.5h0s.1,0,.2.1Z"/>
    <path class="st13" d="M174.1,76.1c0,0,.1,0,.2,0,.2,0,.3-.3.3-.5h0c-.3-1.2-1.2-2.1-2.3-2.6-.2,0-.4,0-.5.3,0,.2,0,.4.3.5.9.4,1.6,1.1,1.8,2,0,.1.1.2.3.2Z"/>
    <path class="st13" d="M159.3,63.9v3.5c-1.2.5-2,1.7-1.7,3.1.8,3-1.4,7.3-3.9,8.9,0,0,0-1.3-1-1.1-1.1.2-1.6,6.8,0,10.2,0,0-2.8-3.2-3.7-10.3-.9-6.6-.4-11.9,1.2-14.2h9Z"/>
    <path class="st11" d="M147.5,78.5c.6,1.9,1.9,3.5,3.6,4.5,2.3,1.2,4.1-.7,3.9-3.2-.2-2.2-1.5-5.6-4.1-5.8-2.6-.2-4.1,2.1-3.4,4.5Z"/>
    <path class="st13" d="M159.3,67.4s2.3,2.3,4.5.6c0,0,2.5,2.1,4.5.6,0,0,1.1,1.9,3,2.1,1.8.2,1.8-1.7,1.8-1.7,0,0,2.9,1.7,4,.9,1.1-.8-.6-3.9-.6-3.9,0,0,1.4-.7.5-3.2-.9-2.5-4.9-1.9-4.9-1.9,0,0,.2-2.3-2.7-4.8-2.8-2.4-4.5.6-4.5.6,0,0-2.7-3.7-6.1-3.2-3.4.5-3,2.8-3,2.8,0,0-3.9-2.4-5.6,0-1.7,2.4,0,3.6,0,3.6,0,0-3.9,1.3-3.7,4,.2,2.7,2.2,2.3,2.2,2.3,0,0-1.1,1.3,1.4,2.3,2.5,1.1,4.9-1.6,4.9-1.6,0,0-1,1.5.8,2.5,1.8,1,3.5-2.1,3.5-2.1Z"/>
    <path class="st13" d="M167,86.4c-.9.8-2.2,2.4-2.2,2.4-.2,0-.3-.2-.5-.3-2.2-1.3-2.9-2.6-2.8-3.7,0-.6.2-1.1.4-1.5.2-.5.5-.7.5-.7.8,1.4,2.8,2.8,3.9,3.5.5.3.8.5.8.5Z"/>
    <path class="st16" d="M166.3,85.9l-.7.7c-2.1-1.2-3.4-2.4-3.7-3.4.2-.5.5-.7.5-.7.8,1.4,2.8,2.8,3.9,3.5Z"/>
    <path class="st22" d="M164.3,88.5c-2.2-1.3-2.9-2.6-2.8-3.7.7.5,1.6,1.1,2.2,1.9.5.6.6,1.2.6,1.8Z"/>
    <path class="st17" d="M164.6,105.3s-13.7-9.3-18.1-9.9c-4.4-.5-3.6,4.9-3.6,4.9,0,0-3.4,0-2.1,4.2,1.3,4.2,19.9,6.4,26.8,4.4,6.9-2,11-5.9,9.8-9.6-1.1-3.7-4.3-.5-4.3-.5,0,0-1.9-3.4-4.5-2.6-2.7.8-4.1,9.1-4.1,9.1Z"/>
    <path class="st17" d="M193.7,103.7c-1.3,1.6-2.7,3.2-4.2,4.6-1.4,1.3-2.9,2.5-4.5,3.5,0,.2,0,.3,0,.5,0-.1-.2-.3-.3-.4-.9-1.2-2-2.7-3-4.2-1.2-2-2.4-4.1-2.9-5.8h0c-.2-.6-.3-1-.3-1.5l-1.1-1.6.4-.4,3-3.5.7-.8,1.3,1.7s1.7-.6,7,4c1.4,1.2,2.8,2.7,3.9,4Z"/>
    <path class="st17" d="M64.7,341.7c19.1,0,34.6-15.5,34.6-34.5s-15.5-34.5-34.6-34.5-34.6,15.5-34.6,34.5,15.5,34.5,34.6,34.5Z"/>
    <path class="st4" d="M98.1,307.1c0,8-2.8,15.3-7.5,21-1.4,1.7-3,3.3-4.7,4.8-.6.5-1.1.9-1.7,1.3-1.6,1.2-3.4,2.2-5.2,3.1-4.3,2-9.1,3.2-14.2,3.2s-11.9-1.7-16.8-4.5c-1.3-.7-2.5-1.6-3.6-2.5h0c0,0-.1,0-.2-.2-1.4-1-2.6-2.2-3.8-3.5-5.6-5.9-9-13.9-9-22.7,0-18.4,15-33.3,33.3-33.3s33.4,15,33.4,33.3Z"/>
    <path class="st13" d="M85.8,332.9c-.6.5-1.1.9-1.7,1.3-1.6,1.2-3.4,2.2-5.2,3.1-4.3,2-9.1,3.2-14.2,3.2s-11.9-1.7-16.8-4.5c-1.3-.7-2.5-1.6-3.6-2.5h0c0,0-.1,0-.2-.2,0,0,0-.1,0-.2h0c.3-1.1.6-2.2.8-3.4.4-1.6.7-3.2,1-4.9.7-4.4,1.2-9.2,1-14.1-.6-17.7,2.6-24.1,9.8-27.6.3-.2.7-.3,1-.5,1.7-.7,3.4-.9,5.1-.6h0c6.2.8,11.5,6.6,11.5,6.6,0,0,1.2,1.6,2.8,4.8,2.9,5.6,7.2,16.1,8.3,30.5h0c.2,2.9.3,5.9.3,9.1Z"/>
    <path class="st17" d="M85.6,323.8h0c-1.3-1-2.5-1.6-3.5-1.8,0,0-7-.7-13.2-.6-.7,0-1.4,0-2,0-3.1.2-6.3.5-9.4,1-.9.1-1.8.3-2.7.4-3,.5-5.9,1.1-8.9,1.9-1.4.4-2.8.8-4.2,1.2-.5.6-1,2-1.4,3.9,1.1,1.3,2.4,2.4,3.8,3.5,0,0,.1.1.2.2h0c1.1.9,2.4,1.7,3.6,2.5,4.9,2.9,10.7,4.5,16.8,4.5s9.9-1.1,14.2-3.2c1.8-.9,3.6-1.9,5.2-3.1.6-.4,1.2-.9,1.7-1.3,1.7-1.4,3.3-3,4.7-4.8-1.6-1.6-3.4-3.2-5-4.3Z"/>
    <path class="st8" d="M85.6,323.8h0c-1.3-1-2.5-1.6-3.5-1.8,0,0-7-.7-13.2-.6-.7,0-1.4,0-2,0-3.1.2-6.3.5-9.4,1-.9.1-1.8.3-2.7.4-3,.5-5.9,1.1-8.9,1.9-1.4.4-2.8.8-4.2,1.2-.5.6-1,2-1.4,3.9,1.1,1.3,2.4,2.4,3.8,3.5,0,0,.1.1.2.2h0c1.1.9,2.4,1.7,3.6,2.5,4.9,2.9,10.7,4.5,16.8,4.5s9.9-1.1,14.2-3.2c1.8-.9,3.6-1.9,5.2-3.1.6-.4,1.2-.9,1.7-1.3,1.7-1.4,3.3-3,4.7-4.8-1.6-1.6-3.4-3.2-5-4.3Z"/>
    <path class="st11" d="M66.4,328.3c-7.8-1-10.1-4.3-10.1-4.3,3.2-3,2.6-7.4,1.8-10.1-.4-1.5-1-2.5-1-2.5l9.3,1.7c-.2,1.5-.3,2.8-.4,3.9,0,1.2,0,2.1.3,2.9.6,2.8,2.2,2.8,2.2,2.8,1.6,3.1-2.2,5.6-2.2,5.6Z"/>
    <path class="st1" d="M66.1,317c0,1.2,0,2.1.3,2.9-3.7-.5-6.5-3.4-8.3-6-.4-1.5-1-2.5-1-2.5l9.3,1.7c-.2,1.5-.3,2.8-.4,3.9Z"/>
    <path class="st11" d="M64.5,287.2c8.1.3,10.6,4.7,10.8,13.1.4,10.5-2.2,17.8-12.3,15.2-13.7-3.5-12-28.8,1.5-28.3Z"/>
    <path class="st21" d="M70.1,299.7s1,2.2,2.2,3.4c0,0-.7,1.1-2.2.8v-4.3Z"/>
    <path class="st13" d="M61.8,294.8c0,0-.2,0-.3-.1-.2-.2-.2-.4,0-.6,1.4-1.6,3.9-1.2,4-1.2.2,0,.4.3.3.5,0,.2-.3.4-.5.3,0,0-2.1-.3-3.2,1,0,0-.2.1-.3.1Z"/>
    <path class="st13" d="M74.4,294.3c0,0-.2,0-.3,0-1.5-1.1-2.8-.7-2.8-.7-.2,0-.5,0-.5-.3,0-.2,0-.5.3-.5,0,0,1.7-.5,3.6.8.2.1.2.4,0,.6,0,.1-.2.2-.3.2Z"/>
    <path class="st13" d="M68.9,307.1c-.5,1-1.1,2.8-1.1,2.8-.2,0-.3,0-.5,0-2.4-.3-3.3-1.3-3.7-2.2-.2-.5-.2-1-.2-1.4,0-.5.2-.8.2-.8,1.1.9,3.3,1.4,4.5,1.6.5.1.8.1.8.1Z"/>
    <path class="st16" d="M68.1,307l-.3.8c-2.2-.3-3.7-.8-4.3-1.6,0-.5.2-.8.2-.8,1.1.9,3.3,1.4,4.5,1.6Z"/>
    <path class="st22" d="M67.3,309.8c-2.4-.3-3.3-1.3-3.7-2.2.8.1,1.7.4,2.5.9.6.4,1,.8,1.2,1.3Z"/>
    <path class="st13" d="M55.1,300.6s4-6.5,3.7-11.7c0,0,16.3-6,16.5,10.4,0,0,2.1-14.4-11.8-15.3-13.9-.8-14.6,19.6-7.7,25.9,0,0-3.2-5.2-.7-9.3Z"/>
    <path class="st11" d="M56.4,302.3c0-1.3-1.3-3.6-3.7-3.4-2.5.2-3.9,5.3,2.3,6.8.9.2,1.4-.6,1.4-3.4Z"/>
    <path class="st13" d="M60,281.8c4.4-1.2,16.1-1.4,18.9,10.7l-1.6.8s-3.9-2.1-8.8-2.6c0,0-1-1.8-2.3-3.3,0,0,.2,2,0,3.1,0,0-7.6,1.1-11,4.2-5.4,4.9-5.7,8-5.7,8,0,0-3.7-17,10.6-21Z"/>
    <path class="st13" d="M80,292.5c-.1,0-.2,0-.3-.2-1.4-4.2-3.8-7.1-7.1-8.7-6-3-13.1-.6-13.2-.5-.2,0-.3,0-.4-.2,0-.2,0-.3.2-.4,0,0,7.4-2.5,13.7.6,3.4,1.7,5.9,4.7,7.4,9.1,0,.2,0,.3-.2.4,0,0,0,0-.1,0Z"/>
    <path class="st13" d="M63,298.8s1.9-1.6,2.8.6c0,0-1.4-.7-2.8-.6Z"/>
    <path class="st13" d="M72,300s1.1-2.2,2.5-.6c0,0-1.6,0-2.5.6Z"/>
    <path class="st17" d="M440.3,387.8c16.7-16.7,16.7-43.8,0-60.5-16.7-16.7-43.8-16.7-60.5,0-16.7,16.7-16.7,43.8,0,60.5,16.7,16.7,43.8,16.7,60.5,0Z"/>
    <path class="st4" d="M451.7,357.5c0,6.7-1.6,13.1-4.4,18.7-.6,1.1-1.2,2.2-1.8,3.3-.5.8-1.1,1.6-1.6,2.4-2.4,3.4-5.4,6.3-8.7,8.8-.8.6-1.5,1.1-2.3,1.6-3.2,2.1-6.7,3.7-10.4,4.9-3.9,1.2-8,1.8-12.2,1.8-6.1,0-12-1.3-17.2-3.7-.7-.3-1.3-.6-2-1h0c-3.7-2-7.1-4.5-10.1-7.4-2.9-2.9-5.4-6.2-7.3-9.8-.6-1-1.1-2.1-1.5-3.2h0c-2.2-5.1-3.5-10.7-3.5-16.6,0-22.9,18.7-41.6,41.6-41.6s41.6,18.7,41.6,41.6Z"/>
    <path class="st11" d="M389.3,355.9c-.5,1-2.6,3.1-2.6,3.1l-3.6,17-2.3,11.1c-2.9-2.9-5.4-6.2-7.3-9.8.3-.9.6-1.8.9-2.8,2.5-7.9,5.5-17,5.7-17.9.4-1.6-1-9.5-.7-10.9.3-1.4,7.5-3.1,9.1-3.1,1.6,0,1.4,12.3.9,13.3Z"/>
    <path class="st17" d="M394.9,374.6s0,0,0,0l-1.5,15.5-.5,5.3c-.7-.3-1.3-.6-2-1h0c-3.7-2-7.1-4.5-10.1-7.4-2.9-2.9-5.4-6.2-7.3-9.8-.6-1-1.1-2.1-1.5-3.2l2.4.4,8.8,1.4,1.9.3-2.2,10.7s8.1-11.2,12.1-12.4Z"/>
    <path class="st0" d="M394.9,374.6s0,0,0,0l-1.5,15.5-.5,5.3c-.7-.3-1.3-.6-2-1h0c-3.7-2-7.1-4.5-10.1-7.4-2.9-2.9-5.4-6.2-7.3-9.8-.6-1-1.1-2.1-1.5-3.2l2.4.4,8.8,1.4,1.9.3-2.2,10.7s8.1-11.2,12.1-12.4Z"/>
    <path class="st17" d="M447.2,376.2c-.6,1.1-1.2,2.2-1.8,3.3-.5.8-1.1,1.6-1.6,2.4-2.4,3.4-5.4,6.3-8.7,8.8-.8.6-1.5,1.1-2.3,1.6-3.2,2.1-6.7,3.7-10.4,4.9-3.9,1.2-8,1.8-12.2,1.8-6.1,0-12-1.3-17.2-3.7-.7-.3-1.3-.6-2-1h0c1.7-12,3.8-19.1,4-19.8,0,0,0,0,0,0,4.3-1.2,8.7-2.1,13.2-2.7,0,0,.1,0,.2,0h0c6.4-.5,12.8-.6,19.3-.4h0c4.5.1,8.9.6,13.3,1.3.6.2,3.5,1.5,6.3,3.4Z"/>
    <path class="st0" d="M447.2,376.2c-.6,1.1-1.2,2.2-1.8,3.3-.5.8-1.1,1.6-1.6,2.4-2.4,3.4-5.4,6.3-8.7,8.8-.8.6-1.5,1.1-2.3,1.6-3.2,2.1-6.7,3.7-10.4,4.9-3.9,1.2-8,1.8-12.2,1.8-6.1,0-12-1.3-17.2-3.7-.7-.3-1.3-.6-2-1h0c1.7-12,3.8-19.1,4-19.8,0,0,0,0,0,0,4.3-1.2,8.7-2.1,13.2-2.7,0,0,.1,0,.2,0h0c6.4-.5,12.8-.6,19.3-.4h0c4.5.1,8.9.6,13.3,1.3.6.2,3.5,1.5,6.3,3.4Z"/>
    <path class="st5" d="M435.1,390.8c-.8.6-1.5,1.1-2.3,1.6-3.2,2.1-6.7,3.7-10.4,4.9-3.9,1.2-8,1.8-12.2,1.8-6.1,0-12-1.3-17.2-3.7-.7-.3-1.3-.6-2-1h0c0-.4.1-.7.2-1,.7-1.1,1.5-2.2,2.4-3.3,4.3-5.5,10.3-11,13.4-13.7.8,1.1,2.3,2,4.7,2.4,3.9.8,8.4-1.1,12.1-3.3,1.7,1.7,4.2,4.3,6.5,7.2,1.7,2.2,3.4,4.5,4.4,6.6.2.5.4.9.6,1.3Z"/>
    <path class="st11" d="M427.6,371.5s-4.9,6-14.2,6.4c-8.1.4-5.4-6-5.4-6,3-.8,4.6-2.2,5.4-3.8,1-2.2.7-4.8,0-7.5,0-.2,0-.4-.1-.5l11.8-10.5c-1.1,6.3-2.1,17.8,2.4,21.9Z"/>
    <path class="st1" d="M423.3,358.8c-.6,4-5.5,8-9.8,9.3,1-2.2.7-4.8,0-7.5l9.8-7.5c.3,1.9.3,3.8,0,5.7Z"/>
    <path class="st11" d="M428.6,346c-2.5,8.2-3.5,13.1-8.7,16.3-7.8,4.9-17.1-1.3-17.2-10.1,0-7.9,4-19.9,12.9-21.3,6.3-1,12.3,3.3,13.3,9.7.3,1.8.2,3.6-.4,5.3Z"/>
    <path class="st13" d="M415.7,345.3c-.2.7-.6,1.1-1.1,1s-.7-.7-.5-1.4c.2-.7.6-1.1,1.1-1,.4,0,.6.7.5,1.4Z"/>
    <path class="st13" d="M408,343.5c-.2.7-.6,1.1-1.1,1-.4-.1-.7-.7-.5-1.4.2-.7.6-1.1,1.1-1,.4,0,.7.7.5,1.4Z"/>
    <path class="st12" d="M410.4,344.4c-1.3,1.9-2.8,3.6-4.6,5,1,1.4,3.1,1.4,3.1,1.4l1.5-6.4Z"/>
    <path class="st13" d="M418.3,343.4c0,0,.2,0,.3,0,.2,0,.3-.3.2-.5-.5-1.2-1.6-2.1-2.8-2.4-.2,0-.4,0-.5.3h0c0,.2.1.4.3.5,1,.2,1.8,1,2.2,1.9,0,.1.2.2.3.2Z"/>
    <path class="st13" d="M405.1,340.1c.2,0,.3,0,.4-.1.6-.8,1.6-1.3,2.7-1.3.2,0,.4-.1.4-.4,0-.2-.1-.4-.4-.4-1.3,0-2.6.5-3.4,1.6-.1.2-.1.4,0,.6,0,0,.1,0,.2,0Z"/>
    <path class="st11" d="M431,353.5c-1.1,1.9-2.8,3.2-4.9,3.8-2.7.7-4.1-1.7-3.3-4.3.7-2.3,3-5.5,5.7-5.1,2.7.4,3.7,3.3,2.5,5.6Z"/>
    <path class="st13" d="M407.4,353.9c.7,1,1.6,2.9,1.6,2.9.2,0,.4,0,.6-.2,2.6-.7,3.5-1.9,3.8-3,.1-.6,0-1.2,0-1.6-.1-.5-.3-.9-.3-.9-1.1,1.2-3.5,2-4.7,2.5-.5.2-.9.3-.9.3Z"/>
    <path class="st16" d="M408.3,353.6l.5.8c2.4-.7,4-1.5,4.5-2.4-.1-.5-.3-.9-.3-.9-1.1,1.2-3.4,2-4.7,2.5Z"/>
    <path class="st22" d="M409.6,356.7c2.6-.7,3.5-1.9,3.8-3-.9.3-1.9.7-2.7,1.4-.6.5-.9,1.1-1.1,1.6Z"/>
    <path class="st17" d="M271.2,165l-16.4-.8c-2.4-.1-4.3-2.2-4.2-4.6l.8-16.4c.1-2.4,2.2-4.3,4.6-4.2l16.4.8c2.4.1,4.3,2.2,4.2,4.6l-.8,16.4c-.1,2.4-2.2,4.3-4.6,4.2Z"/>
    <path class="st9" d="M270.8,147.3c-1.6-3-5.1-2-7,.1-1.7-2.3-5-3.6-6.9-.8-3.2,4.7,2.7,9.6,5.6,11.5.3.2.6.4.8.5.2-.1.5-.3.9-.5,3-1.6,9.4-5.8,6.6-10.9Z"/>
    <path class="st17" d="M265.8,162.7s-3.7,7.4-11.2,9.4c0,0,4.2-2.2,4.3-10.1l6.9.6Z"/>
    <path class="st11" d="M285.1,240.9s9.5-9.5,12.6-16.3c0,0-1.2-3.8,0-5.7,1.1-2,7.4-7.6,9.1-6.4,1.7,1.2,4.1,5.9,3.1,7.9-1,2-7.2,6-7.2,6,0,0-7.7,15.4-12.5,18.9-4.8,3.5-5.1-4.4-5.1-4.4Z"/>
    <path class="st13" d="M261,212.3c5.5.7,11.9,27.6,16.3,30.1s15.9-12.3,15.9-12.3l5.3,6s-15.2,21.1-21.2,19.2c-6-1.9-17.3-22.7-17.3-22.7l1-20.3Z"/>
    <path class="st6" d="M261,212.3c5.5.7,11.9,27.6,16.3,30.1s15.9-12.3,15.9-12.3l5.3,6s-15.2,21.1-21.2,19.2c-6-1.9-17.3-22.7-17.3-22.7l1-20.3Z"/>
    <path class="st11" d="M294.6,459.8l-7.3,1.3-3-9.9-2.7-9.1,8.4-2.9,2.4,10.9,2.2,9.7Z"/>
    <path class="st13" d="M285.7,460.9c-.1-.8,9.8-1.9,9.8-1.9,0,0,7.1,5.1,13.3,5.4s3.5,4.5-3.1,5.6c-6.6,1.2-11.6,2-16.3,2.9-4.7.8-2.5-3.7-3.7-12Z"/>
    <path class="st17" d="M300.5,460.7c-1.4,0-3.1-.5-3.6-.6,0,0,0,0,0,0,0,0,0,0,0,0,0,0,0,0,0,0,0,0,0,0,0-.1,0-.1.4-2.5,1.7-3.3.4-.3.8-.3,1.3-.2.5.1.8.4.8.7,0,.5-.5,1.2-1.3,1.7.8-.2,1.7-.4,2.3-.1.3.1.5.3.6.6.3.6.1.9,0,1.1-.3.3-.9.4-1.6.4ZM297.8,459.8c1.6.4,3.5.6,3.9.1,0,0,.1-.2,0-.5,0-.1-.2-.2-.3-.3-.8-.3-2.4.3-3.5.7ZM299.2,456.7c-.2,0-.4,0-.6.2-.7.4-1.1,1.6-1.3,2.4,1.4-.8,2.6-1.8,2.6-2.3,0-.1-.3-.2-.4-.3-.1,0-.2,0-.3,0Z"/>
    <path class="st1" d="M292.5,450.3l-8.1,1.1-2.7-9.2,8.4-3,2.5,11.1Z"/>
    <path class="st11" d="M246.1,462.9h-7.4l-1.2-10.3-1.1-9.4,8.8-1.4.5,11.2.4,9.9Z"/>
    <path class="st13" d="M237.1,462.5c0-.8,10-.2,10-.2,0,0,6.2,6.3,12.1,7.7,6,1.4,2.6,5-4,5h-16.5c-4.8,0-1.8-4-1.6-12.5Z"/>
    <path class="st17" d="M252.4,464.9c-1.4,0-3.6-1-4.1-1.3,0,0,0,0,0,0,0,0,0,0,0,0,0,0,0-.1,0-.2,0,0,.9-2.4,2.2-3,.4-.2.9-.2,1.3,0,.5.2.7.5.7.8,0,.5-.7,1.1-1.6,1.5.9,0,1.7,0,2.2.2.3.2.5.4.5.7.2.6,0,.9-.2,1.1-.2.2-.5.3-.9.3ZM249.2,463.4c1.5.6,3.3,1.2,3.8.8,0,0,.2-.1,0-.5,0-.1-.1-.3-.3-.3-.7-.4-2.5-.2-3.6,0ZM251,460.7c-.1,0-.3,0-.4,0-.7.3-1.4,1.4-1.7,2.2,1.5-.6,2.9-1.3,2.9-1.8,0-.1-.2-.3-.4-.3-.1,0-.3-.1-.5-.1Z"/>
    <path class="st1" d="M245.7,453.2l-8.2-.4-1.1-9.5,8.8-1.5.5,11.4Z"/>
    <path class="st17" d="M293.2,444.6l-12,2.1c-12.1-30-20.6-55.1-26.7-76-3.3-11.2-5.8-21.2-7.8-30.1l.6,32.7v74.3h-12.1c-29.5-140.8-8.6-173-8.6-173l35.3-6c1.3,5.3,2.4,13.8,3,19.8l1.6,11.7,13.8,71.3,12.9,73.2Z"/>
    <path class="st17" d="M279.4,445.2l14.8-4.9-.2,6.3-12.3,3.9-2.4-5.3Z"/>
    <path class="st17" d="M233.6,445.9l15.5-2.3-1.3,6.2-12.7,1.7-1.4-5.6Z"/>
    <path class="st13" d="M258.7,197.6s-.1,0-.2,0c-4.5-2.7-8.5-12.7-8.7-13.1,0-.2,0-.3.2-.4.2,0,.3,0,.4.2,0,.1,4.1,10.2,8.5,12.9.1,0,.2.3,0,.4,0,0-.2.1-.3.1Z"/>
    <path class="st13" d="M222.5,171.4s1.8-6,13.5-7c11.7-1,17.6,10.5,14.8,19.1,0,0,2.5,11.7,7.2,15.1,0,0-22.6,10.2-34,10.3-2.5,0-8-12.6-8.7-21.7-.7-8.7,2-15.6,7.1-15.9Z"/>
    <path class="st13" d="M226.6,269.4v5.3l36-2.8v-6.2l-36,3.7Z"/>
    <path class="st7" d="M226.6,269.4v5.3l36-2.8v-6.2l-36,3.7Z"/>
    <path class="st16" d="M254.3,267l-7.9.7.5,6,7.9-.7-.5-6Z"/>
    <path class="st17" d="M238.7,267.2h-1.8c0,0,.5,9.2.5,9.2h1.8c0,0-.5-9.2-.5-9.2Z"/>
    <path class="st17" d="M260.7,264.8h-1.8c0,0,.5,9.2.5,9.2h1.8c0,0-.5-9.2-.5-9.2Z"/>
    <path class="st13" d="M262.8,266.3l-36,3.1c-.3-5.4-.7-10.1-1.5-15.3-.5-3.4-1.3-6.9-2.3-11.1-.8-3.3-1.8-6.9-3.1-11.1,0-.2-.1-.5-.2-.7-.7-2.4-6-.6-6.5-3.4-2.1-12.7,11.7-13.7,16.7-14.5,5.3-.9,10.8-1.5,16.2-1.7,7,0,15.1.7,15.1.7,0,0,1.1.3,1.9,7.7.7,7,1.3,20.9-.1,46.3Z"/>
    <path class="st11" d="M243,219.5c-8.9-1.1-11.6-4.9-11.6-4.9,5.6-5.3,1-14.5,1-14.5l10.7,2c-.3,1.8-.4,3.2-.4,4.5,0,6.5,2.9,6.5,2.9,6.5,1.9,3.5-2.5,6.4-2.5,6.4Z"/>
    <path class="st1" d="M243.1,202.1c-.3,1.8-.4,3.2-.4,4.5-7.2,0-10.3-6.5-10.3-6.5l10.7,2Z"/>
    <path class="st11" d="M234.9,172.2c9.1-2.1,13.1,2.1,15.9,11.3,3.5,11.5,2.8,20.4-9.1,20.5-16.2,0-21.8-28.4-6.7-31.8Z"/>
    <path class="st23" d="M244.8,184.3s1.8,2.1,3.5,3.2c0,0-.5,1.4-2.2,1.6l-1.3-4.7Z"/>
    <path class="st13" d="M239.1,184.8c.2.7,0,1.4-.6,1.6-.5.1-1-.4-1.2-1.1-.2-.7,0-1.4.6-1.6.5-.1,1,.4,1.2,1.1Z"/>
    <path class="st13" d="M237.6,183.8l1.4-1s-.5,1.6-1.4,1Z"/>
    <path class="st13" d="M248.3,182.4c.2.7,0,1.4-.6,1.6-.5.1-1-.4-1.2-1.1-.2-.7,0-1.4.6-1.6.5-.1,1,.4,1.2,1.1Z"/>
    <path class="st13" d="M246.8,181.3l1.4-1s-.5,1.6-1.4,1Z"/>
    <path class="st13" d="M233.9,181.3c0,0-.1,0-.2,0-.2-.1-.3-.4-.2-.6,1.1-2.2,3.9-2.5,4-2.5.2,0,.5.2.5.4,0,.2-.2.5-.4.5,0,0-2.4.3-3.3,2,0,.2-.2.2-.4.2Z"/>
    <path class="st13" d="M244.1,177.1c-.1,0-.3,0-.4-.2-.1-.2,0-.5.1-.6,0,0,1.7-1.1,4.2-.1.2,0,.3.3.3.6,0,.2-.3.3-.6.3-2.1-.8-3.3,0-3.4,0,0,0-.2,0-.2,0Z"/>
    <path class="st13" d="M245.6,192.9c-.3,1.2-.3,3.4-.3,3.4-.2,0-.4,0-.6,0-2.7.3-4.1-.4-4.8-1.3-.4-.5-.6-1.1-.6-1.5,0-.5,0-.9,0-.9,1.5.7,4.1.6,5.4.4.6,0,.9,0,.9,0Z"/>
    <path class="st16" d="M244.7,193v1c-2.7.3-4.5.2-5.4-.5,0-.5,0-.9,0-.9,1.5.7,4.1.6,5.4.4Z"/>
    <path class="st22" d="M244.7,196.4c-2.7.3-4.1-.4-4.8-1.3.9,0,2,0,3.1.2.8.2,1.3.7,1.7,1.1Z"/>
    <path class="st13" d="M228.4,189.7s2.5-8.4.6-14c0,0,16.3-11.4,21.3,6.6,0,0-1.9-16.6-17.6-13.4-15.7,3.2-10.5,26-.8,31,0,0-5.1-4.9-3.5-10.1Z"/>
    <path class="st11" d="M230.4,191.3c-.4-1.4-2.5-3.6-5.1-2.7-2.7.9-2.8,7,4.5,6.8,1.1,0,1.4-1.1.6-4.2Z"/>
    <path class="st13" d="M229,175.7s9.4-3.5,14.7-.9c0,0-5.7-5.1-15.4-.3l.7,1.1Z"/>
    <path class="st11" d="M223.2,215.6s10.4,8.5,20.1,8.3c9.7-.1,13.1-11,13.1-11,0,0-15.1-4.5-33.3,2.7Z"/>
    <path class="st1" d="M254.5,370.7c-3.3-11.2-5.8-21.2-7.8-30.1,0,0,.2-17.2,2.3-31.4,0,0,5.2,40.5,5.5,61.5Z"/>
    <path class="st11" d="M194,234.3s-7.1-11.4-8.6-18.7c0,0,2-3.4,1.4-5.6-.6-2.2-5.5-9-7.4-8.3-1.9.8-5.4,4.8-4.8,7,.5,2.2,5.7,7.5,5.7,7.5,0,0,4.1,16.8,7.9,21.2,3.9,4.5,5.9-3.2,5.9-3.2Z"/>
    <path class="st13" d="M213.5,221.5c3.6-.5,11,6.6,9.8,12.7-1.1,6.1-11.4,23.4-19.3,22-11.2-1.9-23.5-31.4-23.5-31.4l6.1-5.4s14.5,25.1,17.3,24.6c2.9-.5,9.5-22.6,9.5-22.6Z"/>
    <path class="st6" d="M213.5,221.5c3.6-.5,11,6.6,9.8,12.7-1.1,6.1-11.4,23.4-19.3,22-11.2-1.9-23.5-31.4-23.5-31.4l6.1-5.4s14.5,25.1,17.3,24.6c2.9-.5,9.5-22.6,9.5-22.6Z"/>
    <path class="st13" d="M178,223.1l9-5.4,1.4,2.3-8.5,7.5-1.9-4.4Z"/>
    <path class="st13" d="M291.2,229.9l7.3,9,1.3-2.8-6.5-7.6-2,1.4Z"/>
    <path class="st17" d="M294.8,217.7l11.5-14c.4-.5,1.1-.5,1.6,0l5.1,4.8c.4.4.5,1,0,1.5l-11.6,14.3c-.4.5-1.2.5-1.6,0l-4.9-5.1c-.4-.4-.4-1,0-1.4Z"/>
    <path class="st0" d="M294.8,217.7l11.5-14c.4-.5,1.1-.5,1.6,0l5.1,4.8c.4.4.5,1,0,1.5l-11.6,14.3c-.4.5-1.2.5-1.6,0l-4.9-5.1c-.4-.4-.4-1,0-1.4Z"/>
    <path class="st17" d="M294.4,217.2l11.5-14c.4-.5,1.1-.5,1.6,0l5.1,4.8c.4.4.5,1,0,1.5l-11.6,14.3c-.4.5-1.2.5-1.6,0l-4.9-5.1c-.4-.4-.4-1,0-1.4Z"/>
    <path class="st9" d="M306.3,203.8l5.7,5.5-11.1,13.7-5.5-5.8,11-13.3Z"/>
  </g>
</svg>