<svg width="140" height="43" viewBox="0 0 140 43" fill="none" xmlns="http://www.w3.org/2000/svg">
<path d="M133.944 0H5.86356C2.62521 0 0 2.62521 0 5.86356V36.6629C0 39.9013 2.62521 42.5265 5.86356 42.5265H133.944C137.182 42.5265 139.807 39.9013 139.807 36.6629V5.86356C139.807 2.62521 137.182 0 133.944 0Z" fill="black"/>
<path d="M45.824 25.6835H47.7646V30.1072C47.2012 30.5663 46.5335 30.9002 45.7614 31.1506C45.0102 31.401 44.2172 31.5053 43.4243 31.5053C42.2975 31.5053 41.275 31.2549 40.3569 30.775C39.4388 30.2742 38.7293 29.6064 38.2076 28.73C37.6859 27.8536 37.4355 26.8937 37.4355 25.7878C37.4355 24.6819 37.6859 23.722 38.2076 22.8456C38.7293 21.9692 39.4388 21.3015 40.3569 20.8007C41.275 20.2998 42.2975 20.0703 43.4452 20.0703C44.3842 20.0703 45.2189 20.2164 45.9909 20.5294C46.7421 20.8424 47.389 21.2806 47.9107 21.8857L46.6169 23.1586C45.7614 22.3031 44.7598 21.8857 43.5495 21.8857C42.7774 21.8857 42.068 22.0527 41.4628 22.3865C40.8577 22.7204 40.3778 23.1795 40.0439 23.7637C39.71 24.348 39.5222 25.0366 39.5222 25.7878C39.5222 26.539 39.6892 27.1859 40.0439 27.791C40.3778 28.3753 40.8577 28.8552 41.4628 29.1891C42.068 29.523 42.7566 29.6899 43.5286 29.6899C44.405 29.6899 45.1563 29.5021 45.8031 29.1265V25.6626L45.824 25.6835Z" fill="white"/>
<path d="M51.7711 30.9219C51.0825 30.5463 50.54 30.0455 50.1643 29.3777C49.7887 28.71 49.5801 27.9796 49.5801 27.145C49.5801 26.3103 49.7679 25.5591 50.1643 24.9122C50.54 24.2654 51.0825 23.7437 51.7711 23.3681C52.4597 22.9925 53.2318 22.8047 54.0873 22.8047C54.9428 22.8047 55.7358 22.9925 56.4244 23.3681C57.113 23.7437 57.6555 24.2445 58.0311 24.9122C58.4067 25.5591 58.6154 26.3103 58.6154 27.145C58.6154 27.9796 58.4276 28.7309 58.0311 29.3777C57.6555 30.0455 57.113 30.5463 56.4244 30.9219C55.7358 31.2975 54.9637 31.4853 54.0873 31.4853C53.2109 31.4853 52.4597 31.2975 51.7711 30.9219ZM55.9027 29.0439C56.3826 28.5639 56.6122 27.917 56.6122 27.1241C56.6122 26.3312 56.3826 25.6843 55.9027 25.2044C55.4228 24.7244 54.8176 24.474 54.0873 24.474C53.357 24.474 52.7518 24.7244 52.2928 25.2044C51.8128 25.6843 51.5833 26.3312 51.5833 27.1241C51.5833 27.917 51.8128 28.5639 52.2928 29.0439C52.7727 29.5238 53.357 29.7742 54.0873 29.7742C54.8176 29.7742 55.4228 29.5238 55.9027 29.0439Z" fill="white"/>
<path d="M61.9957 30.9219C61.3071 30.5463 60.7646 30.0455 60.389 29.3777C60.0134 28.71 59.8047 27.9796 59.8047 27.145C59.8047 26.3103 59.9925 25.5591 60.389 24.9122C60.7646 24.2654 61.3071 23.7437 61.9957 23.3681C62.6843 22.9925 63.4564 22.8047 64.3119 22.8047C65.1674 22.8047 65.9604 22.9925 66.649 23.3681C67.3376 23.7437 67.8801 24.2445 68.2557 24.9122C68.6313 25.5591 68.84 26.3103 68.84 27.145C68.84 27.9796 68.6522 28.7309 68.2557 29.3777C67.8801 30.0455 67.3376 30.5463 66.649 30.9219C65.9604 31.2975 65.1883 31.4853 64.3119 31.4853C63.4355 31.4853 62.6843 31.2975 61.9957 30.9219ZM66.1273 29.0439C66.6073 28.5639 66.8368 27.917 66.8368 27.1241C66.8368 26.3312 66.6073 25.6843 66.1273 25.2044C65.6474 24.7244 65.0422 24.474 64.3119 24.474C63.5816 24.474 62.9764 24.7244 62.5174 25.2044C62.0374 25.6843 61.8079 26.3312 61.8079 27.1241C61.8079 27.917 62.0374 28.5639 62.5174 29.0439C62.9973 29.5238 63.5816 29.7742 64.3119 29.7742C65.0422 29.7742 65.6474 29.5238 66.1273 29.0439Z" fill="white"/>
<path d="M79.1481 22.8908V30.069C79.1481 33.0529 77.6248 34.5345 74.5783 34.5345C73.7645 34.5345 72.9924 34.4302 72.262 34.2215C71.5317 34.0128 70.9266 33.7207 70.4466 33.3242L71.3439 31.8427C71.7195 32.1557 72.1786 32.3852 72.742 32.573C73.3054 32.7608 73.8896 32.8443 74.4531 32.8443C75.3921 32.8443 76.0598 32.6356 76.498 32.2183C76.9362 31.8009 77.1449 31.1541 77.1449 30.2777V29.8395C76.811 30.2151 76.3937 30.4863 75.9137 30.6741C75.4338 30.8619 74.8913 30.9663 74.307 30.9663C73.514 30.9663 72.7837 30.7993 72.1368 30.4446C71.49 30.1107 70.9683 29.6099 70.5927 28.9839C70.2171 28.3579 70.0293 27.6485 70.0293 26.8346C70.0293 26.0208 70.2171 25.3114 70.5927 24.7062C70.9683 24.0802 71.49 23.6003 72.1368 23.2664C72.7837 22.9326 73.514 22.7656 74.307 22.7656C74.9121 22.7656 75.4755 22.87 75.9763 23.0578C76.4771 23.2664 76.8945 23.5586 77.2283 23.9759V22.8491H79.1063L79.1481 22.8908ZM76.4771 28.6292C76.9571 28.1701 77.2075 27.6067 77.2075 26.8764C77.2075 26.146 76.9571 25.5826 76.4771 25.1444C75.9972 24.7062 75.3712 24.4767 74.62 24.4767C73.8688 24.4767 73.2428 24.7062 72.7628 25.1444C72.2829 25.5826 72.0325 26.1669 72.0325 26.8764C72.0325 27.5859 72.2829 28.1701 72.7628 28.6292C73.2428 29.0883 73.8688 29.2969 74.62 29.2969C75.3712 29.2969 75.9763 29.0674 76.4771 28.6292Z" fill="white"/>
<path d="M81.7363 19.5938H83.7187V31.3626H81.7363V19.5938Z" fill="white"/>
<path d="M94.2566 27.7528H87.621C87.7462 28.3788 88.0383 28.8796 88.5392 29.2343C89.04 29.5891 89.6451 29.7769 90.3754 29.7769C91.3144 29.7769 92.0656 29.4639 92.6708 28.8587L93.735 30.069C93.3594 30.5281 92.8794 30.8619 92.2952 31.0915C91.7109 31.321 91.064 31.4462 90.3337 31.4462C89.3947 31.4462 88.5809 31.2584 87.8714 30.8828C87.1619 30.5072 86.6194 30.0064 86.2229 29.3387C85.8473 28.6709 85.6387 27.9406 85.6387 27.1059C85.6387 26.2712 85.8265 25.5409 86.2021 24.8732C86.5777 24.2054 87.0993 23.7046 87.7671 23.329C88.4348 22.9534 89.186 22.7656 90.0207 22.7656C90.8554 22.7656 91.5857 22.9534 92.2326 23.3082C92.8794 23.6629 93.3802 24.1846 93.7558 24.8523C94.1106 25.52 94.2984 26.2712 94.2984 27.1476C94.2984 27.2937 94.2984 27.4815 94.2566 27.7319V27.7528ZM88.3931 24.9358C87.9549 25.3114 87.6836 25.8122 87.6001 26.4382H92.3995C92.316 25.833 92.0656 25.3322 91.6274 24.9566C91.1892 24.581 90.6467 24.3932 90.0207 24.3932C89.3947 24.3932 88.8522 24.581 88.4139 24.9566L88.3931 24.9358Z" fill="white"/>
<path d="M107.82 20.7377C108.529 21.0507 109.072 21.5098 109.468 22.0941C109.844 22.6784 110.032 23.3878 110.032 24.2016C110.032 25.0154 109.844 25.704 109.468 26.3092C109.093 26.9143 108.55 27.3734 107.82 27.6864C107.11 27.9994 106.276 28.1663 105.316 28.1663H102.812V31.3589H100.746V20.2578H105.316C106.276 20.2578 107.11 20.4247 107.82 20.7377ZM107.257 25.8292C107.716 25.4536 107.945 24.9111 107.945 24.2016C107.945 23.4922 107.716 22.9496 107.257 22.574C106.797 22.1984 106.109 22.0106 105.212 22.0106H102.812V26.4135H105.212C106.109 26.4135 106.797 26.2257 107.257 25.8501V25.8292Z" fill="white"/>
<path d="M112.055 19.5938H114.037V31.3626H112.055V19.5938Z" fill="white"/>
<path d="M122.738 23.6837C123.406 24.2888 123.719 25.1861 123.719 26.3963V31.3626H121.841V30.3402C121.59 30.7158 121.256 30.987 120.797 31.1957C120.338 31.3835 119.817 31.4878 119.17 31.4878C118.523 31.4878 117.98 31.3835 117.5 31.154C117.021 30.9453 116.666 30.6323 116.395 30.2567C116.144 29.8811 115.998 29.4429 115.998 28.9421C115.998 28.1909 116.29 27.5649 116.854 27.1058C117.417 26.6467 118.314 26.4172 119.525 26.4172H121.716V26.292C121.716 25.7077 121.549 25.2487 121.194 24.9357C120.839 24.6227 120.317 24.4557 119.608 24.4557C119.128 24.4557 118.669 24.5392 118.21 24.6853C117.751 24.8313 117.354 25.04 117.041 25.3113L116.269 23.8715C116.708 23.5376 117.25 23.2663 117.876 23.0994C118.502 22.9116 119.17 22.8281 119.858 22.8281C121.11 22.8281 122.049 23.1203 122.717 23.7254L122.738 23.6837ZM120.923 29.6933C121.298 29.4638 121.59 29.1508 121.736 28.7126V27.7318H119.691C118.544 27.7318 117.98 28.1074 117.98 28.8586C117.98 29.2134 118.126 29.5055 118.419 29.7142C118.711 29.9228 119.107 30.0272 119.608 30.0272C120.109 30.0272 120.547 29.9228 120.923 29.6933Z" fill="white"/>
<path d="M134.027 22.8906L130.062 32.0303C129.687 32.9484 129.248 33.5953 128.706 33.9709C128.184 34.3465 127.537 34.5343 126.786 34.5343C126.369 34.5343 125.952 34.4717 125.534 34.3256C125.117 34.1795 124.783 33.9917 124.512 33.7622L125.305 32.3015C125.492 32.4893 125.722 32.6145 125.972 32.7397C126.223 32.8441 126.494 32.9067 126.765 32.9067C127.12 32.9067 127.412 32.8232 127.621 32.6354C127.85 32.4476 128.059 32.1555 128.247 31.7381L128.393 31.4043L124.7 22.9115H126.765L129.436 29.1715L132.107 22.9115H134.006L134.027 22.8906Z" fill="white"/>
<path d="M33.6366 20.7159L28.3156 17.6484L23.9336 21.8844L27.94 25.7447L33.6366 22.4478C33.9496 22.26 34.1374 21.947 34.1374 21.5714C34.1374 21.1958 33.9496 20.8828 33.6366 20.695V20.7159Z" fill="#EEBC37"/>
<path d="M27.4187 17.1097L21.5551 13.7293L8.70117 7.15625L23.2036 21.1787L27.4187 17.1097Z" fill="#4FBB75"/>
<path d="M8.91016 36.3919L21.5763 29.4224L27.0434 26.2715L23.2039 22.5781L8.91016 36.3919Z" fill="#ED484D"/>
<path d="M7.84509 7.71875L7.82422 36.035L22.4936 21.8664L7.84509 7.71875Z" fill="#1FBEE3"/>
<path d="M41.0024 14.11C40.5642 14.11 40.1469 14.0057 39.7504 13.8179C39.354 13.6301 39.0201 13.3588 38.7488 13.025C38.4567 12.6911 38.2272 12.3155 38.0811 11.919C37.9142 11.5017 37.8516 11.0843 37.8516 10.6461C37.8516 10.2079 37.935 9.74887 38.0811 9.33154C38.248 8.9142 38.4567 8.55946 38.7488 8.2256C39.041 7.91259 39.3748 7.66219 39.7504 7.47439C40.1469 7.28659 40.5642 7.20312 41.0024 7.20312C41.6702 7.20312 42.2127 7.34919 42.6301 7.62046C43.0683 7.89173 43.3813 8.24646 43.5899 8.68467L42.9222 9.14373C42.7135 8.74727 42.4423 8.45513 42.1084 8.26733C41.7537 8.07953 41.378 7.9752 40.9607 7.9752C40.606 7.9752 40.293 8.05866 40.0217 8.20473C39.7504 8.3508 39.5 8.55946 39.2914 8.80987C39.0827 9.06027 38.9366 9.3524 38.8323 9.6654C38.728 9.9784 38.6654 10.3123 38.6654 10.667C38.6654 11.0217 38.728 11.3765 38.8323 11.6895C38.9575 12.0025 39.1244 12.2946 39.3331 12.545C39.5418 12.7954 39.813 12.9832 40.0843 13.1293C40.3764 13.2754 40.6894 13.338 41.0233 13.338C41.4198 13.338 41.7745 13.2336 42.1293 13.0458C42.484 12.858 42.8179 12.545 43.1309 12.1277V13.025C42.5257 13.7553 41.7954 14.11 40.9607 14.11H41.0024ZM43.0683 11.3139H41.6076V10.667H43.7986V14.0683H43.0683V11.3347V11.3139Z" fill="white"/>
<path d="M49.7248 13.2961V14.0682H45.1133V7.26562H49.6414V8.0377H45.9688V10.2496H49.1614V10.959H45.9688V13.317H49.7248V13.2961Z" fill="white"/>
<path d="M55.8175 8.01426H53.4596V14.0656H52.604V8.01426H50.2461V7.24219H55.8175V8.01426Z" fill="white"/>
<path d="M58.9277 14.0682V7.26562H59.7833V14.0682H58.9277Z" fill="white"/>
<path d="M62.2872 8.8515V14.0682H61.4316V7.26562H62.162L66.3145 12.5867V7.26562H67.17V14.0682H66.3771L62.2663 8.8515H62.2872Z" fill="white"/>
<path d="M73.9921 14.11C73.5121 14.11 73.0739 14.0057 72.6983 13.8179C72.3019 13.6301 71.968 13.3588 71.6967 13.0458C71.4046 12.712 71.1959 12.3364 71.0498 11.9399C70.9038 11.5225 70.8203 11.1052 70.8203 10.667C70.8203 10.2288 70.9038 9.76974 71.0707 9.37327C71.2377 8.95593 71.4672 8.6012 71.7593 8.26733C72.0515 7.95433 72.3853 7.68306 72.7818 7.49526C73.1783 7.30746 73.5956 7.20312 74.0547 7.20312C74.5137 7.20312 74.9728 7.30746 75.3484 7.49526C75.7449 7.68306 76.0787 7.95433 76.35 8.2882C76.6213 8.62206 76.8508 8.99767 76.9969 9.39413C77.143 9.81147 77.2264 10.2288 77.2264 10.6461C77.2264 11.1052 77.143 11.5434 76.9969 11.9399C76.8299 12.3572 76.6213 12.712 76.3291 13.0458C76.037 13.3588 75.7031 13.6301 75.3067 13.8179C74.9102 14.0057 74.4929 14.0892 74.0338 14.0892L73.9921 14.11ZM71.6758 10.6461C71.6758 11.0009 71.7385 11.3347 71.8428 11.6477C71.9471 11.9607 72.1141 12.2529 72.3227 12.5033C72.5314 12.7537 72.7818 12.9415 73.0531 13.0876C73.3452 13.2336 73.6582 13.3171 74.0129 13.3171C74.3677 13.3171 74.7015 13.2336 74.9937 13.0876C75.2858 12.9415 75.5362 12.7328 75.724 12.4824C75.9327 12.232 76.0787 11.9399 76.1831 11.6269C76.2874 11.3139 76.35 10.98 76.35 10.667C76.35 10.3123 76.2874 9.99927 76.1831 9.6654C76.0787 9.3524 75.9118 9.06027 75.7031 8.80987C75.4945 8.55946 75.2441 8.3508 74.9728 8.2256C74.6807 8.07953 74.3677 8.01693 74.0338 8.01693C73.6791 8.01693 73.3452 8.1004 73.0531 8.24646C72.7609 8.39253 72.5105 8.6012 72.3227 8.8516C72.1141 9.102 71.968 9.39414 71.8637 9.70714C71.7593 10.0201 71.6967 10.354 71.6967 10.6879L71.6758 10.6461Z" fill="white"/>
<path d="M79.2716 8.8515V14.0682H78.416V7.26562H79.1463L83.2988 12.5867V7.26562H84.1544V14.0682H83.3614L79.2507 8.8515H79.2716Z" fill="white"/>
</svg>
