<?xml version="1.0" encoding="UTF-8"?>
<svg id="Layer_1" xmlns="http://www.w3.org/2000/svg" xmlns:xlink="http://www.w3.org/1999/xlink" version="1.1" viewBox="0 0 800 800">
  <!-- Generator: Adobe Illustrator 29.0.1, SVG Export Plug-In . SVG Version: 2.1.0 Build 192)  -->
  <defs>
    <style>
      .st0 {
        opacity: .1;
      }

      .st0, .st1, .st2 {
        isolation: isolate;
      }

      .st1 {
        opacity: .2;
      }

      .st3 {
        fill: url(#linear-gradient2);
      }

      .st4 {
        fill: url(#linear-gradient1);
      }

      .st5 {
        fill: url(#linear-gradient3);
      }

      .st6 {
        fill: url(#linear-gradient);
      }

      .st2 {
        fill: #fff;
        opacity: .2;
      }
    </style>
    <linearGradient id="linear-gradient" x1="-4310.9" y1="6885.4" x2="-4398.9" y2="6973.4" gradientTransform="translate(25954.7 -40754) scale(5.9)" gradientUnits="userSpaceOnUse">
      <stop offset="0" stop-color="#00a0ff"/>
      <stop offset="0" stop-color="#00a1ff"/>
      <stop offset=".3" stop-color="#00beff"/>
      <stop offset=".5" stop-color="#00d2ff"/>
      <stop offset=".8" stop-color="#00dfff"/>
      <stop offset="1" stop-color="#00e3ff"/>
    </linearGradient>
    <linearGradient id="linear-gradient1" x1="-4247.8" y1="6944.9" x2="-4374.7" y2="6944.9" gradientTransform="translate(25954.7 -40754) scale(5.9)" gradientUnits="userSpaceOnUse">
      <stop offset="0" stop-color="#ffe000"/>
      <stop offset=".4" stop-color="#ffbd00"/>
      <stop offset=".8" stop-color="orange"/>
      <stop offset="1" stop-color="#ff9c00"/>
    </linearGradient>
    <linearGradient id="linear-gradient2" x1="-4295.1" y1="6956.6" x2="-4414.4" y2="7075.9" gradientTransform="translate(25954.7 -40754) scale(5.9)" gradientUnits="userSpaceOnUse">
      <stop offset="0" stop-color="#ff3a44"/>
      <stop offset="1" stop-color="#c31162"/>
    </linearGradient>
    <linearGradient id="linear-gradient3" x1="-4387.1" y1="6840.9" x2="-4333.9" y2="6894.2" gradientTransform="translate(25954.7 -40754) scale(5.9)" gradientUnits="userSpaceOnUse">
      <stop offset="0" stop-color="#32a071"/>
      <stop offset="0" stop-color="#2da771"/>
      <stop offset=".5" stop-color="#15cf74"/>
      <stop offset=".8" stop-color="#06e775"/>
      <stop offset="1" stop-color="#00f076"/>
    </linearGradient>
  </defs>
  <path class="st6" d="M54.4,11.1c-9.3,9.3-12.4,24.9-12.4,43.5v686.5c0,18.6,6.2,34.2,15.5,43.5l3.1,3.1,385.2-385.2v-6.2L54.4,11.1Z"/>
  <path class="st4" d="M570.1,533l-127.4-127.4v-9.3l127.4-127.4,3.1,3.1,152.2,87c43.5,24.9,43.5,65.2,0,90.1l-155.3,83.9Z"/>
  <path class="st3" d="M573.2,529.9l-130.5-130.5L54.4,787.7c15.5,15.5,37.3,15.5,65.2,3.1l453.5-260.9"/>
  <path class="st5" d="M573.2,269L119.7,11.1c-28-15.5-49.7-12.4-65.2,3.1l388.3,385.2,130.5-130.5h0Z"/>
  <path class="st1" d="M570.1,526.8l-450.4,254.7c-24.9,15.5-46.6,12.4-62.1,0l-3.1,3.1,3.1,3.1c15.5,12.4,37.3,15.5,62.1,0l450.4-260.9Z"/>
  <path class="st0" d="M54.4,781.5c-9.3-9.3-12.4-24.9-12.4-43.5v3.1c0,18.6,6.2,34.2,15.5,43.5v-3.1h-3.1ZM725.4,439.8l-155.3,87,3.1,3.1,152.2-87c21.7-12.4,31.1-28,31.1-43.5,0,15.5-12.4,28-31.1,40.4Z"/>
  <path class="st2" d="M119.7,14.3l605.7,344.8c18.6,12.4,31.1,24.9,31.1,40.4,0-15.5-9.3-31.1-31.1-43.5L119.7,11.1C76.2-13.7,42,4.9,42,54.6v3.1c0-46.6,34.2-68.3,77.7-43.5Z"/>
</svg>