<?xml version="1.0" encoding="UTF-8"?>
<svg id="Layer_1" xmlns="http://www.w3.org/2000/svg" version="1.1" viewBox="0 0 121 20">
  <!-- Generator: Adobe Illustrator 29.0.1, SVG Export Plug-In . SVG Version: 2.1.0 Build 192)  -->
  <defs>
    <style>
      .st0 {
        fill: #111;
      }

      .st1 {
        fill: #00e5a6;
      }
    </style>
  </defs>
  <path class="st0" d="M52.9,2v13.1h-1.3V4.7l-4.7,10.5h-1l-4.7-10.4v10.4h-1.3V2h1.4l5.1,11.3,5.1-11.3h1.4ZM64.4,4.8l-6.1,15.2h-1.4l2-4.9-4.2-10.3h1.5l3.5,8.8,3.4-8.8h1.4,0ZM74.2,1.8v9.1c0,1.4-.4,2.5-1.2,3.2s-1.8,1.1-3.2,1.1-2.5-.4-3.4-1.2c-.9-.8-1.3-1.9-1.3-3.4h3.2c0,.5.1,1,.3,1.3.2.3.5.4,1,.4s.7-.1.9-.4.3-.6.3-1.1V1.8h3.2,0ZM76.2,9.8c0-1.1.2-2,.6-2.9.4-.8,1-1.4,1.7-1.9s1.5-.7,2.4-.7,1.4.1,1.9.5c.6.3,1,.7,1.3,1.2v-1.5h3.2v10.6h-3.2v-1.5c-.3.5-.8.9-1.3,1.2-.5.3-1.2.5-1.9.5s-1.6-.2-2.3-.7-1.3-1.1-1.7-1.9-.6-1.8-.6-2.9h0ZM84.2,9.8c0-.8-.2-1.4-.7-1.9s-1-.7-1.6-.7-1.2.2-1.7.7c-.5.5-.7,1.1-.7,1.9s.2,1.4.7,1.9c.5.5,1,.7,1.7.7s1.2-.2,1.6-.7.7-1.1.7-1.9ZM103.2,4.4c1.3,0,2.3.4,3.1,1.2.8.8,1.2,1.9,1.2,3.3v6.2h-3.2v-5.7c0-.7-.2-1.2-.5-1.6-.4-.4-.9-.6-1.5-.6s-1.1.2-1.5.6c-.4.4-.5.9-.5,1.6v5.7h-3.2v-5.7c0-.7-.2-1.2-.5-1.6-.4-.4-.9-.6-1.5-.6s-1.1.2-1.5.6c-.4.4-.5.9-.5,1.6v5.7h-3.2V4.5h3.2v1.3c.3-.5.8-.8,1.3-1,.5-.3,1.1-.4,1.8-.4s1.5.2,2.1.5c.6.3,1.1.8,1.5,1.5.4-.6.9-1.1,1.5-1.4.6-.4,1.3-.5,2.1-.5h0ZM111.4,3.4c-.6,0-1-.2-1.4-.5-.4-.3-.5-.8-.5-1.3s.2-.9.5-1.3c.4-.3.8-.5,1.4-.5s1,.2,1.4.5c.4.3.5.7.5,1.3s-.2.9-.5,1.3c-.4.3-.8.5-1.4.5ZM113.1,4.5v10.6h-3.2V4.5h3.2ZM117,3.4c-.6,0-1-.2-1.4-.5-.4-.3-.5-.8-.5-1.3s.2-.9.5-1.3c.4-.3.8-.5,1.4-.5s1,.2,1.4.5c.4.3.5.7.5,1.3s-.2.9-.5,1.3c-.4.3-.8.5-1.4.5ZM118.6,4.5v10.6h-3.2V4.5h3.2Z"/>
  <g>
    <circle class="st1" cx="20.4" cy="9.9" r="10"/>
    <path class="st0" d="M23.1,13.8c0-.7-.3-1.3-.7-1.7-.7-.5-1.2-1.3-1.2-2.2s.4-1.5.9-2h0c.6-.5,1-1.2,1-2,0-1.4-1.2-2.6-2.6-2.6s-2.6,1.2-2.6,2.6.4,1.5.9,2c0,0,0,0,0,0,.6.5.9,1.2.9,2s-.4,1.5-.9,2c-.5.5-.9,1.2-.9,1.9,0,1.4,1.2,2.6,2.6,2.6s2.6-1.2,2.6-2.6h0Z"/>
    <path class="st0" d="M24.8,11.7c1,0,1.9-.8,1.9-1.9s-.8-1.9-1.9-1.9-1.9.8-1.9,1.9.8,1.9,1.9,1.9Z"/>
    <path class="st0" d="M16,11.7c1,0,1.9-.8,1.9-1.9s-.8-1.9-1.9-1.9-1.9.8-1.9,1.9.8,1.9,1.9,1.9Z"/>
  </g>
</svg>