<svg width="140" height="43" viewBox="0 0 140 43" fill="none" xmlns="http://www.w3.org/2000/svg">
<path d="M134.137 0H6.05693C2.81858 0 0.193359 2.62521 0.193359 5.86356V36.6629C0.193359 39.9013 2.81858 42.5265 6.05693 42.5265H134.137C137.376 42.5265 140.001 39.9013 140.001 36.6629V5.86356C140.001 2.62521 137.376 0 134.137 0Z" fill="black"/>
<path d="M12.9016 17.3779C10.6271 21.3218 12.0669 27.2897 14.5918 30.8996C15.8438 32.715 17.1166 34.3426 18.8486 34.3426C18.8903 34.3426 18.9112 34.3426 18.9529 34.3426C19.7667 34.3009 20.351 34.0505 20.9353 33.821C21.5821 33.5497 22.229 33.2576 23.2723 33.2576C24.3157 33.2576 24.9 33.5288 25.5051 33.8001C26.1102 34.0505 26.7154 34.3218 27.6335 34.3218C29.595 34.28 30.7844 32.5272 31.8486 30.9831C32.9545 29.3763 33.5179 27.7905 33.7057 27.2062C33.7475 27.081 33.7057 26.9558 33.5805 26.9141C33.2258 26.768 30.221 25.4325 30.1792 21.7808C30.1584 18.8178 32.4537 17.2319 32.9128 16.9606H32.9337C32.9337 16.9606 33.0171 16.8563 33.038 16.8145C33.038 16.7519 33.038 16.6893 32.9963 16.6476C31.4104 14.3314 28.9898 13.9767 28.0091 13.9349C27.863 13.9349 27.717 13.9141 27.5709 13.9141C26.4232 13.9141 25.3173 14.3523 24.4409 14.6861C23.8357 14.9365 23.3141 15.1243 22.9385 15.1243C22.5211 15.1243 21.9995 14.9157 21.3943 14.6653C20.5805 14.3314 19.6415 13.9767 18.6608 13.9767C18.6399 13.9767 18.619 13.9767 18.5982 13.9767C16.3028 14.0184 14.1536 15.3121 12.9433 17.3988L12.9016 17.3779Z" fill="white"/>
<path d="M27.9677 7.50844C26.5905 7.57104 24.9211 8.42658 23.9195 9.57425C23.064 10.555 22.2502 12.1826 22.4588 13.8311C22.4588 13.9354 22.5632 14.0189 22.6675 14.0189C22.751 14.0189 22.8553 14.0189 22.9596 14.0189C24.316 14.0189 25.7767 13.2677 26.7783 12.0574C27.8216 10.7845 28.3641 9.13605 28.1972 7.67537C28.1972 7.55017 28.0929 7.4667 27.9677 7.48757V7.50844Z" fill="white"/>
<path d="M43.9316 9.70312H46.5609C47.2495 9.70312 47.8546 9.84919 48.3971 10.1205C48.9397 10.4126 49.357 10.8091 49.6491 11.3099C49.9413 11.8107 50.0873 12.3741 50.0873 13.0209C50.0873 13.6678 49.9413 14.2312 49.6491 14.732C49.357 15.2328 48.9397 15.6293 48.3971 15.9214C47.8546 16.2136 47.2495 16.3388 46.5609 16.3388H43.9316V9.70312ZM46.5191 15.9006C47.1243 15.9006 47.6668 15.7754 48.1467 15.525C48.6058 15.2746 48.9814 14.9407 49.2318 14.5025C49.4822 14.0643 49.6074 13.5635 49.6074 13.0001C49.6074 12.4367 49.4822 11.9359 49.2318 11.4977C48.9814 11.0595 48.6267 10.7256 48.1467 10.4752C47.6877 10.2248 47.1451 10.0996 46.5191 10.0996H44.4116V15.8797H46.5191V15.9006Z" fill="white"/>
<path d="M52.2786 16.07C51.903 15.8614 51.6109 15.5484 51.3813 15.1728C51.1727 14.7972 51.0684 14.3589 51.0684 13.879C51.0684 13.3991 51.1727 12.9609 51.3813 12.5853C51.59 12.2097 51.8822 11.8967 52.2786 11.688C52.6542 11.4793 53.0716 11.375 53.5515 11.375C54.0314 11.375 54.4488 11.4793 54.8244 11.688C55.2 11.8967 55.4921 12.2097 55.7216 12.5853C55.9303 12.9609 56.0346 13.3991 56.0346 13.879C56.0346 14.3589 55.9303 14.7972 55.7216 15.1728C55.513 15.5484 55.2208 15.8614 54.8244 16.07C54.4488 16.2787 54.0314 16.383 53.5515 16.383C53.0716 16.383 52.6542 16.2787 52.2786 16.07ZM54.574 15.6944C54.8661 15.5275 55.1165 15.2771 55.2834 14.9641C55.4504 14.6511 55.5547 14.2963 55.5547 13.879C55.5547 13.4617 55.4712 13.1069 55.2834 12.7939C55.1165 12.4809 54.8661 12.2305 54.574 12.0636C54.2818 11.8967 53.9271 11.7923 53.5515 11.7923C53.1759 11.7923 52.842 11.8758 52.529 12.0636C52.2369 12.2305 51.9865 12.4809 51.8196 12.7939C51.6526 13.1069 51.5483 13.4617 51.5483 13.879C51.5483 14.2963 51.6318 14.6511 51.8196 14.9641C51.9865 15.2771 52.2369 15.5275 52.529 15.6944C52.8212 15.8614 53.1759 15.9657 53.5515 15.9657C53.9271 15.9657 54.261 15.8822 54.574 15.6944Z" fill="white"/>
<path d="M64.4432 11.3984L62.5651 16.3439H62.1269L60.4576 12.0453L58.7674 16.3439H58.3292L56.4512 11.3984H56.9102L58.5587 15.8222L60.2489 11.3984H60.6663L62.3565 15.8222L64.0258 11.3984H64.464H64.4432Z" fill="white"/>
<path d="M69.4314 11.8941C69.7861 12.2488 69.9739 12.7705 69.9739 13.4591V16.3596H69.494V13.5008C69.494 12.9374 69.3479 12.5201 69.0766 12.228C68.8054 11.9358 68.4089 11.7898 67.8872 11.7898C67.303 11.7898 66.8439 11.9567 66.51 12.3114C66.1762 12.6662 66.0092 13.1252 66.0092 13.7095V16.3387H65.5293V11.3933H65.9884V12.4575C66.1553 12.1028 66.4057 11.8315 66.7604 11.6437C67.0943 11.4559 67.4908 11.3516 67.9707 11.3516C68.5967 11.3516 69.0766 11.5394 69.4522 11.8941H69.4314Z" fill="white"/>
<path d="M71.9355 9.3125H72.4155V16.3655H71.9355V9.3125Z" fill="white"/>
<path d="M75.0853 16.07C74.7097 15.8614 74.4175 15.5484 74.188 15.1728C73.9793 14.7972 73.875 14.3589 73.875 13.879C73.875 13.3991 73.9793 12.9609 74.188 12.5853C74.3967 12.2097 74.6888 11.8967 75.0853 11.688C75.4609 11.4793 75.8782 11.375 76.3581 11.375C76.8381 11.375 77.2554 11.4793 77.631 11.688C78.0066 11.8967 78.2987 12.2097 78.5283 12.5853C78.7369 12.9609 78.8413 13.3991 78.8413 13.879C78.8413 14.3589 78.7369 14.7972 78.5283 15.1728C78.3196 15.5484 78.0275 15.8614 77.631 16.07C77.2554 16.2787 76.8381 16.383 76.3581 16.383C75.8782 16.383 75.4609 16.2787 75.0853 16.07ZM77.3597 15.6944C77.6519 15.5275 77.9023 15.2771 78.0692 14.9641C78.2361 14.6511 78.3405 14.2963 78.3405 13.879C78.3405 13.4617 78.257 13.1069 78.0692 12.7939C77.9023 12.4809 77.6519 12.2305 77.3597 12.0636C77.0676 11.8967 76.7129 11.7923 76.3373 11.7923C75.9617 11.7923 75.6278 11.8758 75.3148 12.0636C75.0227 12.2305 74.7723 12.4809 74.6053 12.7939C74.4384 13.1069 74.3341 13.4617 74.3341 13.879C74.3341 14.2963 74.4175 14.6511 74.6053 14.9641C74.7723 15.2771 75.0227 15.5275 75.3148 15.6944C75.6069 15.8614 75.9617 15.9657 76.3373 15.9657C76.7129 15.9657 77.0467 15.8822 77.3597 15.6944Z" fill="white"/>
<path d="M83.3488 11.8314C83.6826 12.1444 83.8496 12.6035 83.8496 13.2086V16.3595H83.3905V15.4831C83.2235 15.7752 82.994 16.0048 82.7019 16.1717C82.3889 16.3386 82.0341 16.4221 81.6168 16.4221C81.0743 16.4221 80.6361 16.2969 80.3022 16.0256C79.9892 15.7752 79.8223 15.4205 79.8223 15.0031C79.8223 14.5858 79.9683 14.2519 80.2605 14.0015C80.5526 13.7511 81.0325 13.6259 81.6794 13.6259H83.3696V13.2295C83.3696 12.7704 83.2444 12.4157 82.994 12.1861C82.7436 11.9357 82.3889 11.8314 81.8881 11.8314C81.5542 11.8314 81.2412 11.894 80.9491 11.9983C80.6569 12.1027 80.3857 12.2696 80.177 12.4574L79.9475 12.1235C80.1979 11.894 80.49 11.7271 80.8447 11.6019C81.1995 11.4767 81.5542 11.4141 81.9298 11.4141C82.535 11.4141 83.0149 11.581 83.3488 11.894V11.8314ZM82.7227 15.7126C83.0149 15.5248 83.2235 15.2535 83.3696 14.8779V13.9389H81.6794C81.1995 13.9389 80.8447 14.0224 80.6152 14.2102C80.4065 14.3771 80.2813 14.6275 80.2813 14.9405C80.2813 15.2536 80.4065 15.5248 80.6361 15.7126C80.8865 15.9004 81.2203 15.9839 81.6585 15.9839C82.0759 15.9839 82.4097 15.8796 82.7019 15.6918L82.7227 15.7126Z" fill="white"/>
<path d="M90.2149 9.3125V16.3655H89.7559V15.1969C89.5681 15.5934 89.276 15.8855 88.9212 16.0942C88.5665 16.3029 88.17 16.4072 87.7109 16.4072C87.2519 16.4072 86.8345 16.3029 86.4589 16.0942C86.0833 15.8855 85.7912 15.5725 85.5825 15.1969C85.3739 14.8213 85.2695 14.3831 85.2695 13.9032C85.2695 13.4233 85.3739 12.9851 85.5825 12.5886C85.7912 12.213 86.0833 11.9 86.4589 11.6913C86.8345 11.4826 87.2519 11.3783 87.7109 11.3783C88.17 11.3783 88.5456 11.4826 88.9003 11.6913C89.2551 11.9 89.5264 12.1921 89.735 12.5677V9.33337H90.2149V9.3125ZM88.7752 15.6977C89.0673 15.5308 89.3177 15.2804 89.4846 14.9674C89.6515 14.6544 89.7559 14.2997 89.7559 13.8823C89.7559 13.465 89.6724 13.1103 89.4846 12.7973C89.3177 12.4843 89.0673 12.2338 88.7752 12.0669C88.483 11.9 88.1283 11.7956 87.7527 11.7956C87.3771 11.7956 87.0432 11.8791 86.7302 12.0669C86.4381 12.2338 86.1877 12.4843 86.0207 12.7973C85.8538 13.1103 85.7495 13.465 85.7495 13.8823C85.7495 14.2997 85.8329 14.6544 86.0207 14.9674C86.1877 15.2804 86.4381 15.5308 86.7302 15.6977C87.0223 15.8647 87.3771 15.969 87.7527 15.969C88.1283 15.969 88.4621 15.8855 88.7752 15.6977Z" fill="white"/>
<path d="M95.3275 16.07C94.9519 15.8614 94.6597 15.5484 94.4302 15.1728C94.2215 14.7972 94.1172 14.3589 94.1172 13.879C94.1172 13.3991 94.2215 12.9609 94.4302 12.5853C94.6389 12.2097 94.931 11.8967 95.3275 11.688C95.7031 11.4793 96.1204 11.375 96.6003 11.375C97.0803 11.375 97.4976 11.4793 97.8732 11.688C98.2488 11.8967 98.541 12.2097 98.7705 12.5853C98.9792 12.9609 99.0835 13.3991 99.0835 13.879C99.0835 14.3589 98.9792 14.7972 98.7705 15.1728C98.5618 15.5484 98.2697 15.8614 97.8732 16.07C97.4976 16.2787 97.0803 16.383 96.6003 16.383C96.1204 16.383 95.7031 16.2787 95.3275 16.07ZM97.6228 15.6944C97.9149 15.5275 98.1653 15.2771 98.3323 14.9641C98.4992 14.6511 98.6035 14.2963 98.6035 13.879C98.6035 13.4617 98.5201 13.1069 98.3323 12.7939C98.1653 12.4809 97.9149 12.2305 97.6228 12.0636C97.3307 11.8967 96.9759 11.7923 96.6003 11.7923C96.2247 11.7923 95.8909 11.8758 95.5779 12.0636C95.2857 12.2305 95.0353 12.4809 94.8684 12.7939C94.7015 13.1069 94.5971 13.4617 94.5971 13.879C94.5971 14.2963 94.6806 14.6511 94.8684 14.9641C95.0353 15.2771 95.2857 15.5275 95.5779 15.6944C95.87 15.8614 96.2247 15.9657 96.6003 15.9657C96.9759 15.9657 97.3098 15.8822 97.6228 15.6944Z" fill="white"/>
<path d="M104.445 11.8941C104.8 12.2488 104.988 12.7705 104.988 13.4591V16.3596H104.508V13.5008C104.508 12.9374 104.362 12.5201 104.09 12.228C103.819 11.9358 103.423 11.7898 102.901 11.7898C102.317 11.7898 101.858 11.9567 101.524 12.3114C101.19 12.6662 101.023 13.1252 101.023 13.7095V16.3387H100.543V11.3933H101.002V12.4575C101.169 12.1028 101.419 11.8315 101.774 11.6437C102.108 11.4559 102.504 11.3516 102.984 11.3516C103.61 11.3516 104.09 11.5394 104.466 11.8941H104.445Z" fill="white"/>
<path d="M111.832 16.0274C111.707 16.1318 111.561 16.2361 111.373 16.2987C111.185 16.3613 110.997 16.3822 110.81 16.3822C110.371 16.3822 110.038 16.257 109.808 16.0274C109.578 15.7979 109.453 15.464 109.453 15.0258V11.7915H108.535V11.3741H109.453V10.2891H109.933V11.3741H111.519V11.7915H109.933V14.9841C109.933 15.2971 110.017 15.5475 110.163 15.7144C110.309 15.8814 110.538 15.9648 110.851 15.9648C111.164 15.9648 111.415 15.8814 111.623 15.6936L111.832 16.0274Z" fill="white"/>
<path d="M117.049 11.8974C117.403 12.2521 117.591 12.7738 117.591 13.4624V16.3629H117.111V13.5042C117.111 12.9407 116.965 12.5234 116.694 12.2313C116.423 11.9391 116.026 11.7931 115.504 11.7931C114.92 11.7931 114.461 11.96 114.127 12.3147C113.793 12.6695 113.626 13.1285 113.626 13.7128V16.342H113.146V9.28906H113.626V12.4191C113.793 12.0852 114.044 11.8139 114.378 11.6261C114.711 11.4383 115.108 11.3549 115.567 11.3549C116.193 11.3549 116.673 11.5427 117.049 11.8974Z" fill="white"/>
<path d="M123.726 13.9833H119.469C119.469 14.3589 119.573 14.7137 119.761 15.0058C119.949 15.298 120.199 15.5484 120.512 15.6944C120.825 15.8614 121.18 15.9448 121.576 15.9448C121.889 15.9448 122.202 15.8822 122.474 15.7779C122.745 15.6527 122.974 15.4858 123.162 15.2562L123.434 15.5692C123.225 15.8196 122.954 16.0283 122.62 16.1744C122.286 16.3204 121.931 16.383 121.556 16.383C121.055 16.383 120.616 16.2787 120.241 16.07C119.844 15.8614 119.552 15.5484 119.344 15.1728C119.135 14.7972 119.01 14.3589 119.01 13.879C119.01 13.3991 119.114 12.9609 119.323 12.5853C119.531 12.2097 119.803 11.8967 120.178 11.688C120.533 11.4793 120.95 11.375 121.389 11.375C121.827 11.375 122.244 11.4793 122.599 11.688C122.954 11.8967 123.246 12.1888 123.434 12.5853C123.642 12.9609 123.747 13.3991 123.747 13.879V14.0042L123.726 13.9833ZM120.45 12.001C120.178 12.1471 119.949 12.3766 119.782 12.6479C119.615 12.9191 119.511 13.253 119.49 13.6077H123.287C123.287 13.253 123.183 12.94 122.995 12.6687C122.828 12.3975 122.599 12.1679 122.328 12.0219C122.056 11.8549 121.743 11.7923 121.389 11.7923C121.034 11.7923 120.721 11.8758 120.45 12.0219V12.001Z" fill="white"/>
<path d="M50.963 31.0348H45.2872L44.1604 33.664H41.9902L47.1026 22.3125H49.1684L54.3016 33.664H52.0898L50.963 31.0348ZM50.2535 29.3863L48.1042 24.42L45.9758 29.3863H50.2326H50.2535Z" fill="white"/>
<path d="M62.6057 25.4618C63.2735 25.8374 63.7951 26.3591 64.1707 27.0268C64.5463 27.6946 64.7341 28.4667 64.7341 29.3431C64.7341 30.2195 64.5463 30.9915 64.1707 31.6801C63.7951 32.3479 63.2735 32.8695 62.6057 33.2451C61.938 33.6207 61.1868 33.7877 60.3521 33.7877C59.1836 33.7877 58.2654 33.3912 57.5768 32.6191V36.8134H55.5527V25.0028H57.4933V26.1296C57.8272 25.7122 58.2446 25.4201 58.7245 25.2114C59.2253 25.0028 59.7678 24.8984 60.3521 24.8984C61.1868 24.8984 61.9588 25.0862 62.6057 25.441V25.4618ZM61.9588 31.3045C62.4388 30.8037 62.6892 30.1569 62.6892 29.3431C62.6892 28.5293 62.4388 27.8824 61.9588 27.3816C61.4789 26.8808 60.8738 26.6304 60.1226 26.6304C59.6426 26.6304 59.2044 26.7347 58.808 26.9642C58.4115 27.1938 58.1194 27.5068 57.8898 27.9033C57.6603 28.3206 57.556 28.7797 57.556 29.3222C57.556 29.8647 57.6603 30.3447 57.8898 30.7411C58.1194 31.1585 58.4324 31.4715 58.808 31.6801C59.2044 31.9097 59.6426 32.014 60.1226 32.014C60.8738 32.014 61.4789 31.7636 61.9588 31.2628V31.3045Z" fill="white"/>
<path d="M73.7288 25.4618C74.3965 25.8374 74.9182 26.3591 75.2938 27.0268C75.6694 27.6946 75.8572 28.4667 75.8572 29.3431C75.8572 30.2195 75.6694 30.9915 75.2938 31.6801C74.9182 32.3479 74.3965 32.8695 73.7288 33.2451C73.061 33.6207 72.3098 33.7877 71.4751 33.7877C70.3066 33.7877 69.3885 33.3912 68.6999 32.6191V36.8134H66.6758V25.0028H68.6164V26.1296C68.9503 25.7122 69.3676 25.4201 69.8475 25.2114C70.3483 25.0028 70.8909 24.8984 71.4751 24.8984C72.3098 24.8984 73.0819 25.0862 73.7288 25.441V25.4618ZM73.0819 31.3045C73.5618 30.8037 73.8122 30.1569 73.8122 29.3431C73.8122 28.5293 73.5618 27.8824 73.0819 27.3816C72.6019 26.8808 71.9968 26.6304 71.2456 26.6304C70.7657 26.6304 70.3275 26.7347 69.931 26.9642C69.5345 27.1938 69.2424 27.5068 69.0129 27.9033C68.7833 28.3206 68.679 28.7797 68.679 29.3222C68.679 29.8647 68.7833 30.3447 69.0129 30.7411C69.2424 31.1585 69.5554 31.4715 69.931 31.6801C70.3275 31.9097 70.7657 32.014 71.2456 32.014C71.9968 32.014 72.6019 31.7636 73.0819 31.2628V31.3045Z" fill="white"/>
<path d="M83.4523 33.453C82.6385 33.2026 81.9917 32.8687 81.5117 32.4722L82.2421 30.8238C82.7011 31.1994 83.2854 31.4915 83.9531 31.721C84.6209 31.9506 85.3095 32.0758 85.9981 32.0758C86.8327 32.0758 87.4796 31.9506 87.8969 31.6793C88.3143 31.408 88.523 31.0533 88.523 30.6151C88.523 30.2812 88.3978 30.0308 88.1682 29.8222C87.9387 29.6135 87.6466 29.4466 87.2918 29.3214C86.9371 29.1962 86.4571 29.071 85.8311 28.9249C84.9756 28.7162 84.2661 28.5076 83.7236 28.2989C83.1811 28.0902 82.722 27.7772 82.3464 27.339C81.9708 26.9008 81.7621 26.3165 81.7621 25.5653C81.7621 24.9393 81.9291 24.3759 82.2629 23.8543C82.5968 23.3326 83.1185 22.9361 83.8071 22.6231C84.4957 22.3101 85.3303 22.1641 86.3319 22.1641C87.0205 22.1641 87.7092 22.2475 88.3769 22.4145C89.0446 22.5814 89.6289 22.8318 90.1088 23.1657L89.4411 24.8141C88.9403 24.522 88.4186 24.2925 87.8761 24.1464C87.3336 24.0003 86.8119 23.9169 86.3111 23.9169C85.4764 23.9169 84.8504 24.0629 84.4539 24.3342C84.0575 24.6055 83.8488 24.9811 83.8488 25.461C83.8488 25.7949 83.974 26.0453 84.2035 26.2539C84.4331 26.4626 84.7252 26.6295 85.0799 26.7339C85.4347 26.8591 85.9146 26.9843 86.5406 27.1304C87.3753 27.3182 88.0848 27.5268 88.6064 27.7355C89.149 27.9442 89.608 28.278 89.9836 28.6954C90.3592 29.1336 90.5679 29.7178 90.5679 30.4482C90.5679 31.0742 90.401 31.6376 90.0671 32.1592C89.7332 32.66 89.2116 33.0774 88.523 33.3695C87.8344 33.6825 86.9788 33.8286 85.9981 33.8286C85.1217 33.8286 84.2661 33.7034 83.4523 33.453Z" fill="white"/>
<path d="M97.6827 33.1985C97.4532 33.3863 97.1611 33.5324 96.8063 33.6367C96.4724 33.7411 96.0968 33.7828 95.7212 33.7828C94.7614 33.7828 94.031 33.5324 93.5094 33.0316C92.9877 32.5308 92.7373 31.8004 92.7373 30.8614V26.6881H91.3184V25.0605H92.7373V23.0781H94.7614V25.0605H97.0776V26.6881H94.7614V30.7988C94.7614 31.2162 94.8657 31.55 95.0744 31.7587C95.283 31.9882 95.5752 32.0926 95.9716 32.0926C96.4307 32.0926 96.8063 31.9674 97.0984 31.7378L97.6618 33.1776L97.6827 33.1985Z" fill="white"/>
<path d="M100.584 33.2034C99.8748 32.8278 99.3323 32.3061 98.9358 31.6175C98.5394 30.9498 98.3516 30.1777 98.3516 29.3222C98.3516 28.4667 98.5394 27.7155 98.9358 27.0268C99.3323 26.3591 99.8748 25.8374 100.584 25.4618C101.294 25.0862 102.087 24.8984 102.942 24.8984C103.798 24.8984 104.632 25.0862 105.321 25.4618C106.031 25.8374 106.573 26.3591 106.97 27.0268C107.366 27.6946 107.554 28.4667 107.554 29.3222C107.554 30.1777 107.366 30.9498 106.97 31.6175C106.573 32.2853 106.031 32.8278 105.321 33.2034C104.612 33.579 103.819 33.7668 102.942 33.7668C102.066 33.7668 101.273 33.579 100.584 33.2034ZM104.799 31.3045C105.279 30.8037 105.53 30.1569 105.53 29.3431C105.53 28.5293 105.279 27.8824 104.799 27.3816C104.319 26.8808 103.693 26.6304 102.942 26.6304C102.191 26.6304 101.586 26.8808 101.106 27.3816C100.626 27.8824 100.376 28.5293 100.376 29.3431C100.376 30.1569 100.626 30.8037 101.106 31.3045C101.586 31.8053 102.191 32.0557 102.942 32.0557C103.693 32.0557 104.299 31.8053 104.799 31.3045Z" fill="white"/>
<path d="M114.545 24.8984V26.839C114.378 26.7973 114.211 26.7973 114.065 26.7973C113.272 26.7973 112.667 27.0268 112.207 27.4859C111.769 27.945 111.54 28.6127 111.54 29.4683V33.6625H109.516V25.0028H111.456V26.2756C112.041 25.3575 113.063 24.9193 114.545 24.9193V24.8984Z" fill="white"/>
<path d="M124.289 29.9873H117.486C117.611 30.6341 117.924 31.1349 118.425 31.5105C118.926 31.8861 119.552 32.0739 120.303 32.0739C121.263 32.0739 122.035 31.7609 122.661 31.1349L123.746 32.3869C123.35 32.846 122.87 33.2007 122.265 33.4511C121.66 33.6807 120.992 33.8059 120.262 33.8059C119.302 33.8059 118.467 33.6181 117.758 33.2425C117.027 32.8669 116.464 32.3452 116.088 31.6566C115.692 30.9889 115.504 30.2168 115.504 29.3613C115.504 28.5057 115.692 27.7545 116.088 27.0868C116.464 26.419 117.006 25.8765 117.695 25.5009C118.384 25.1253 119.135 24.9375 119.99 24.9375C120.846 24.9375 121.597 25.1253 122.244 25.5009C122.912 25.8765 123.433 26.3982 123.809 27.0659C124.184 27.7336 124.372 28.5266 124.372 29.403C124.372 29.5491 124.372 29.7369 124.331 30.0081L124.289 29.9873ZM118.3 27.1076C117.841 27.4832 117.57 28.0049 117.486 28.6309H122.411C122.327 28.0049 122.056 27.5041 121.618 27.1076C121.18 26.7112 120.616 26.5234 119.969 26.5234C119.323 26.5234 118.78 26.7112 118.321 27.1076H118.3Z" fill="white"/>
</svg>
